<!-- Generator: Adobe Illustrator 19.0.0, SVG Export Plug-In  -->
<svg version="1.1"
	 xmlns="http://www.w3.org/2000/svg" xmlns:xlink="http://www.w3.org/1999/xlink" xmlns:a="http://ns.adobe.com/AdobeSVGViewerExtensions/3.0/"
	 x="0px" y="0px" width="485.247px" height="524.633px" viewBox="0 0 485.247 524.633"
	 style="enable-background:new 0 0 485.247 524.633;" xml:space="preserve">
<style type="text/css">
	.st0{opacity:0.3;fill:#473B3A;}
	.st1{fill:#3DCEB5;}
	.st2{fill:#F8E9B2;}
	.st3{fill:#FFB14A;}
	.st4{fill:#F77872;}
	.st5{fill:none;}
	.st6{opacity:0.2;}
	.st7{clip-path:url(#XMLID_995_);}
	.st8{fill:#FFFFFF;}
	.st9{fill:#FCFCFC;}
	.st10{fill:#F8F8F8;}
	.st11{fill:#F5F5F5;}
	.st12{fill:#F2F2F2;}
	.st13{fill:#EEEEEE;}
	.st14{fill:#EBEBEB;}
	.st15{fill:#E8E8E8;}
	.st16{fill:#E4E4E4;}
	.st17{fill:#E1E1E1;}
	.st18{fill:#DDDDDD;}
	.st19{fill:#DADADA;}
	.st20{fill:#D7D7D7;}
	.st21{fill:#D3D3D3;}
	.st22{fill:#D0D0D0;}
	.st23{fill:#CDCDCD;}
	.st24{fill:#C9C9C9;}
	.st25{fill:#C6C6C6;}
	.st26{fill:#C3C3C3;}
	.st27{fill:#BFBFBF;}
	.st28{fill:#BCBCBC;}
	.st29{fill:#B9B9B9;}
	.st30{fill:#B5B5B5;}
	.st31{fill:#B2B2B2;}
	.st32{fill:#AEAEAE;}
	.st33{fill:#ABABAB;}
	.st34{fill:#A8A8A8;}
	.st35{fill:#A4A4A4;}
	.st36{fill:#A1A1A1;}
	.st37{fill:#9E9E9E;}
	.st38{fill:#9A9A9A;}
	.st39{fill:#979797;}
	.st40{fill:#949494;}
	.st41{fill:#909090;}
	.st42{fill:#8D8D8D;}
	.st43{fill:#8A8A8A;}
	.st44{fill:#868686;}
	.st45{fill:#838383;}
	.st46{fill:#7F7F7F;}
	.st47{fill:#7C7C7C;}
	.st48{fill:#797979;}
	.st49{fill:#757575;}
	.st50{fill:#727272;}
	.st51{fill:#6F6F6F;}
	.st52{fill:#6B6B6B;}
	.st53{fill:#686868;}
	.st54{fill:#656565;}
	.st55{fill:#616161;}
	.st56{fill:#5E5E5E;}
	.st57{fill:#5B5B5B;}
	.st58{fill:#575757;}
	.st59{fill:#545454;}
	.st60{fill:#515151;}
	.st61{fill:#4D4D4D;}
	.st62{fill:#4A4A4A;}
	.st63{fill:#464646;}
	.st64{fill:#434343;}
	.st65{fill:#404040;}
	.st66{fill:#3C3C3C;}
	.st67{fill:#393939;}
	.st68{fill:#363636;}
	.st69{fill:#323232;}
	.st70{fill:#2F2F2F;}
	.st71{fill:#2C2C2C;}
	.st72{fill:#282828;}
	.st73{fill:#252525;}
	.st74{fill:#222222;}
	.st75{fill:#1E1E1E;}
	.st76{fill:#1B1B1B;}
	.st77{fill:#171717;}
	.st78{fill:#141414;}
	.st79{fill:#111111;}
	.st80{fill:#0D0D0D;}
	.st81{fill:#0A0A0A;}
	.st82{fill:#070707;}
	.st83{fill:#030303;}
	.st84{fill:#DEAF66;}
	.st85{fill:#DFD64F;}
	.st86{fill:#A67C52;}
	.st87{fill:#42210B;}
	.st88{fill:#8C6239;}
	.st89{fill:#8CF0FB;}
	.st90{opacity:0.5;fill:#8CF0FB;}
	.st91{fill:#E6E6E6;}
	.st92{fill:#603813;}
	.st93{fill:#C69C6D;}
	.st94{fill:#F2E7EB;}
	.st95{clip-path:url(#XMLID_998_);}
	.st96{font-family:'Exo-Bold';}
	.st97{font-size:17.7299px;}
</style>
<defs>
</defs>
<g id="XMLID_503_">
	<g id="XMLID_976_">
		<path id="XMLID_992_" class="st0" d="M110.648,205.907c-15.863-26.572-50.255-35.25-76.826-19.388
			c-26.566,15.859-35.245,50.25-19.382,76.822c15.862,26.571,50.255,35.253,76.821,19.393c0.735-0.439,1.448-0.896,2.154-1.361
			l29.241,4.84l-11.444-23.842C120.866,245.401,121.372,223.869,110.648,205.907z"/>
		<path id="XMLID_991_" class="st1" d="M104.138,202.805c-15.863-26.572-50.255-35.25-76.826-19.388
			c-26.566,15.859-35.245,50.25-19.382,76.822c15.862,26.571,50.255,35.253,76.821,19.393c0.735-0.439,1.448-0.896,2.154-1.361
			l29.241,4.84l-11.444-23.842C114.356,242.299,114.862,220.768,104.138,202.805z"/>
		<g id="XMLID_977_">
			<path id="XMLID_988_" class="st2" d="M88.353,205.589l-38.137,66.892c-0.274,0.48-0.884,0.647-1.364,0.374L29.74,261.958
				c-0.48-0.273-0.647-0.884-0.373-1.364l38.137-66.892c0.274-0.48,0.884-0.647,1.364-0.374l19.112,10.897
				C88.46,204.499,88.627,205.109,88.353,205.589z M48.974,270.622l37.147-65.155l-17.374-9.905L31.6,260.717L48.974,270.622z"/>
			<path id="XMLID_987_" class="st2" d="M44.249,258.719c-0.274,0.48-0.884,0.647-1.364,0.374l-8.687-4.953
				c-0.48-0.274-0.647-0.884-0.374-1.364c0.274-0.48,0.884-0.647,1.364-0.374l8.687,4.953
				C44.355,257.629,44.523,258.24,44.249,258.719z"/>
			<path id="XMLID_986_" class="st2" d="M50.193,248.295c-0.274,0.48-0.884,0.647-1.364,0.374l-8.687-4.953
				c-0.479-0.273-0.647-0.884-0.373-1.364c0.273-0.48,0.884-0.647,1.364-0.374l8.687,4.953
				C50.299,247.204,50.466,247.815,50.193,248.295z"/>
			<path id="XMLID_985_" class="st2" d="M57.5,237.497c-0.274,0.48-0.885,0.647-1.364,0.373l-8.687-4.953
				c-0.48-0.274-0.647-0.884-0.374-1.364c0.274-0.48,0.884-0.647,1.364-0.373l8.687,4.953
				C57.606,236.406,57.773,237.017,57.5,237.497z"/>
			<path id="XMLID_984_" class="st2" d="M49.827,254.993c-0.273,0.479-0.884,0.647-1.364,0.373l-11.293-6.439
				c-0.48-0.274-0.647-0.884-0.374-1.364c0.273-0.48,0.884-0.647,1.364-0.373l11.294,6.438
				C49.933,253.903,50.1,254.513,49.827,254.993z"/>
			<path id="XMLID_983_" class="st2" d="M56.639,245.063c-0.273,0.48-0.884,0.647-1.364,0.373l-11.294-6.439
				c-0.48-0.274-0.647-0.884-0.373-1.364c0.273-0.479,0.884-0.647,1.364-0.373l11.293,6.439
				C56.745,243.973,56.913,244.584,56.639,245.063z"/>
			<path id="XMLID_982_" class="st2" d="M64.434,225.334c-0.274,0.48-0.885,0.647-1.364,0.373l-8.687-4.953
				c-0.48-0.273-0.647-0.884-0.373-1.364c0.274-0.48,0.884-0.647,1.364-0.374l8.687,4.953
				C64.54,224.244,64.707,224.854,64.434,225.334z"/>
			<path id="XMLID_981_" class="st2" d="M63.573,232.901c-0.273,0.48-0.884,0.647-1.364,0.373l-11.294-6.438
				c-0.479-0.273-0.647-0.884-0.373-1.364c0.273-0.48,0.884-0.647,1.364-0.373l11.293,6.439
				C63.679,231.811,63.847,232.421,63.573,232.901z"/>
			<path id="XMLID_980_" class="st2" d="M71.368,213.172c-0.274,0.48-0.885,0.647-1.364,0.374l-8.687-4.953
				c-0.48-0.273-0.647-0.884-0.373-1.364c0.274-0.48,0.884-0.647,1.364-0.374l8.687,4.953
				C71.474,212.082,71.641,212.692,71.368,213.172z"/>
			<path id="XMLID_979_" class="st2" d="M70.507,220.739c-0.273,0.479-0.884,0.647-1.364,0.373l-11.293-6.439
				c-0.479-0.273-0.647-0.884-0.373-1.364c0.273-0.48,0.884-0.647,1.364-0.373l11.293,6.439
				C70.614,219.649,70.781,220.259,70.507,220.739z"/>
			<path id="XMLID_978_" class="st2" d="M77.441,208.577c-0.273,0.479-0.884,0.647-1.364,0.373l-11.294-6.438
				c-0.479-0.273-0.647-0.884-0.373-1.364c0.273-0.48,0.884-0.647,1.364-0.373l11.293,6.439
				C77.548,207.486,77.715,208.097,77.441,208.577z"/>
		</g>
	</g>
	<path id="XMLID_973_" class="st0" d="M347.413,109.101c12.955-40.388-9.279-83.63-49.667-96.585
		c-40.387-12.955-83.633,9.284-96.588,49.671c-12.956,40.391,9.285,83.637,49.672,96.592c1.112,0.357,2.227,0.676,3.344,0.98
		l21.518,34.459l14.157-33.371C316.049,155.397,338.655,136.407,347.413,109.101z"/>
	<path id="XMLID_972_" class="st3" d="M333.191,100.276c12.955-40.388-9.28-83.631-49.666-96.585
		c-40.388-12.955-83.635,9.283-96.59,49.671c-12.956,40.391,9.286,83.637,49.674,96.592c1.112,0.357,2.226,0.676,3.341,0.979
		l21.518,34.459l14.159-33.37C301.828,146.572,324.432,127.581,333.191,100.276z"/>
	<g id="XMLID_963_">
		<g id="XMLID_968_">
			<path id="XMLID_969_" class="st2" d="M222.515,45.822l15.064,58.814l68.566-69.514L222.515,45.822z M240.978,56.737l32.888-4.211
				l-26.964,27.339L240.978,56.737z"/>
		</g>
		<polygon id="XMLID_967_" class="st2" points="259.713,93.897 284.725,80.356 292.333,95.646 267.59,109.05 		"/>
		<path id="XMLID_966_" class="st2" d="M258.283,95.562c0.074,0.47,6.857,14.155,6.857,14.155l-14.999-2.354L258.283,95.562z"/>
		<polygon id="XMLID_965_" class="st2" points="295.871,97.027 285.172,76.339 291.174,73.232 301.878,93.922 		"/>
		
			<rect id="XMLID_964_" x="223.916" y="113.056" transform="matrix(0.9522 0.3054 -0.3054 0.9522 47.1663 -70.3533)" class="st2" width="49" height="5"/>
	</g>
	<path id="XMLID_960_" class="st0" d="M172.745,81.2c-10.813-36.24-48.949-56.847-85.185-46.036
		c-36.231,10.81-56.845,48.944-46.033,85.184c10.811,36.238,48.951,56.848,85.183,46.039c0.999-0.298,1.982-0.626,2.955-0.962
		l33.186,14.511l-6.393-31.68C172.988,131.05,180.053,105.695,172.745,81.2z"/>
	<path id="XMLID_957_" class="st4" d="M162.108,78.342c-10.811-36.238-48.949-56.844-85.184-46.033
		C40.693,43.118,20.079,81.253,30.891,117.49c10.811,36.238,48.952,56.851,85.183,46.041c1-0.298,1.982-0.625,2.955-0.965
		l33.186,14.513l-6.393-31.68C162.353,128.196,169.417,102.84,162.108,78.342z"/>
	<g id="XMLID_946_">
		<g id="XMLID_953_">
			<path id="XMLID_954_" class="st2" d="M126.302,68.936c0-0.782-0.634-1.416-1.416-1.416H73.718c-0.782,0-1.416,0.634-1.416,1.416
				v37.168c0,0.782,0.634,1.416,1.416,1.416h51.168c0.782,0,1.416-0.634,1.416-1.416V68.936z M118.101,100.419
				c0,0.557-0.451,1.102-1.008,1.102H79.75c-0.557,0-1.448-0.639-1.448-1.195V73.733c0-0.557,0.891-1.213,1.448-1.213h37.342
				c0.557,0,1.008,0.6,1.008,1.157L118.101,100.419z"/>
		</g>
		<g id="XMLID_947_">
			<path id="XMLID_952_" class="st5" d="M123.446,111.52H74.382c-0.617,0-1.193,0.195-1.193,0.663l-3.986,8.52
				c0,0.469,0.5,0.817,1.117,0.817h58.118c0.617,0,1.117-0.406,1.117-0.876l-4.992-8.38
				C124.563,111.796,124.063,111.52,123.446,111.52z"/>
			<path id="XMLID_948_" class="st2" d="M127.254,111.111c0-0.782-0.634-1.59-1.416-1.59H72.034c-0.782,0-1.416,0.808-1.416,1.59
				l-9.911,14.076c0,0.783,0.633,1.333,1.416,1.333h73.626c0.783,0,1.416-0.551,1.416-1.333L127.254,111.111z M94.302,125.444
				v-2.923h9.112l0.147,2.79L94.302,125.444z M128.438,121.52H70.32c-0.617,0-1.117-0.406-1.117-0.876l3.986-8.38
				c0-0.469,0.577-0.745,1.193-0.745h49.063c0.617,0,1.118,0.195,1.118,0.663l4.992,8.52
				C129.555,121.173,129.054,121.52,128.438,121.52z"/>
		</g>
	</g>
	<g id="XMLID_704_" class="st6">
		<defs>
			<rect id="XMLID_705_" x="53.851" y="130.718" class="st6" width="393.915" height="393.915"/>
		</defs>
		<clipPath id="XMLID_995_">
			<use xlink:href="#XMLID_705_"  style="overflow:visible;"/>
		</clipPath>
		<g id="XMLID_706_" class="st7">
			<path id="XMLID_943_" class="st8" d="M340.203,302.854h19.457c-0.101,0.274-4.815,12.958-9.077,15.133
				c-1.87,0.956,2.761,3.245,8.439,5.226c0,0.007-0.006,0.014-0.009,0.021c-0.502,1.547,0.346,3.211,1.896,3.713
				c1.549,0.501,3.211-0.348,3.713-1.898c0.009-0.027,0.009-0.053,0.017-0.081c5.684,1.581,10.698,2.359,9.887,0.773
				c-1.898-3.718,1.523-17.607,1.523-17.607c0.58-1.786,0.534-3.62,0-5.28h18.104v31.55h-53.952V302.854z M411.918,386.328v-4.284
				h16.933l-16.933-47.639h-9.625v-31.55h4.134l-39.249-39.249l-39.249,39.249h4.137v31.55H223.09l-16.929,47.639h16.929v4.284
				h-61.32l-11.979,33.7h11.979v82.105v9.732h61.32h4.559h55.868h30.949h6.079h30.951h55.893h4.53h61.352v-9.732v-82.105h11.976
				l-11.976-33.7H411.918z"/>
			<path id="XMLID_940_" class="st9" d="M339.426,302.076h19.457c-0.101,0.274-4.815,12.958-9.077,15.133
				c-1.87,0.956,2.761,3.245,8.439,5.226c0,0.007-0.006,0.014-0.009,0.021c-0.544,1.533,0.346,3.211,1.895,3.713
				c1.549,0.501,3.211-0.348,3.713-1.898c0.009-0.027,0.009-0.053,0.017-0.081c5.684,1.581,10.698,2.359,9.887,0.773
				c-1.898-3.718,1.523-17.607,1.523-17.607c0.58-1.786,0.534-3.62,0-5.28h18.104v31.55h-53.952V302.076z M411.141,385.55v-4.284
				h16.933l-16.933-47.639h-9.625v-31.55h4.134l-39.249-39.249l-39.249,39.249h4.137v31.55H222.312l-16.929,47.639h16.929v4.284
				h-61.32l-11.979,33.7h11.979v82.105v9.732h61.32h4.559h55.868h30.949h6.079h30.951h55.893h4.53h61.352v-9.732V419.25h11.976
				l-11.976-33.7H411.141z"/>
			<path id="XMLID_937_" class="st10" d="M338.648,301.299h19.457c-0.101,0.274-4.815,12.958-9.077,15.133
				c-1.87,0.956,2.761,3.245,8.439,5.226c0,0.007-0.006,0.014-0.009,0.021c-0.544,1.533,0.346,3.211,1.895,3.713
				c1.549,0.501,3.211-0.348,3.713-1.898c0.009-0.027,0.009-0.053,0.017-0.081c5.684,1.581,10.698,2.359,9.887,0.773
				c-1.898-3.718,1.523-17.607,1.523-17.607c0.58-1.786,0.534-3.62,0-5.28H392.6v31.55h-53.952V301.299z M410.363,384.773v-4.284
				h16.933l-16.933-47.639h-9.625v-31.55h4.134l-39.249-39.249l-39.249,39.249h4.137v31.55H221.535l-16.929,47.639h16.929v4.284
				h-61.32l-11.979,33.7h11.979v82.105v9.732h61.32h4.559h55.868h30.949h6.079h30.951h55.893h4.53h61.352v-9.732v-82.105h11.976
				l-11.976-33.7H410.363z"/>
			<path id="XMLID_934_" class="st11" d="M337.871,300.522h19.457c-0.101,0.274-4.815,12.958-9.077,15.133
				c-1.87,0.956,2.761,3.245,8.439,5.226c0,0.007-0.006,0.014-0.009,0.021c-0.544,1.533,0.346,3.211,1.895,3.713
				c1.549,0.501,3.211-0.348,3.713-1.898c0.009-0.027,0.009-0.053,0.017-0.081c5.684,1.581,10.698,2.359,9.887,0.773
				c-1.898-3.718,1.523-17.607,1.523-17.607c0.58-1.786,0.534-3.62,0-5.28h18.104v31.55h-53.952V300.522z M409.586,383.995v-4.284
				h16.933l-16.933-47.639h-9.625v-31.55h4.134l-39.249-39.249l-39.249,39.249h4.137v31.55H220.757l-16.929,47.639h16.929v4.284
				h-61.32l-11.979,33.7h11.979v82.105v9.732h61.32h4.559h55.868h30.949h6.079h30.951h55.893h4.53h61.352v-9.732v-82.105h11.976
				l-11.976-33.7H409.586z"/>
			<path id="XMLID_931_" class="st12" d="M337.093,299.744h19.457c-0.101,0.274-4.815,12.958-9.077,15.133
				c-1.87,0.956,2.761,3.245,8.439,5.226c0,0.007-0.006,0.014-0.009,0.021c-0.544,1.533,0.346,3.211,1.896,3.713
				c1.549,0.501,3.211-0.348,3.713-1.898c0.009-0.027,0.009-0.053,0.017-0.081c5.684,1.581,10.698,2.359,9.887,0.773
				c-1.898-3.718,1.523-17.607,1.523-17.607c0.58-1.786,0.534-3.62,0-5.28h18.104v31.55h-53.952V299.744z M408.809,383.218v-4.284
				h16.933l-16.933-47.639h-9.625v-31.55h4.134l-39.249-39.249l-39.249,39.249h4.137v31.55H219.98l-16.929,47.639h16.929v4.284
				h-61.32l-11.979,33.7h11.979v82.105v9.732h61.32h4.559h55.868h30.949h6.079h30.951h55.893h4.53h61.352v-9.732v-82.105h11.976
				l-11.976-33.7H408.809z"/>
			<path id="XMLID_928_" class="st13" d="M336.316,298.967h19.457c-0.101,0.274-4.815,12.958-9.077,15.133
				c-1.87,0.956,2.761,3.245,8.439,5.226c0,0.007-0.006,0.014-0.009,0.021c-0.544,1.533,0.346,3.211,1.896,3.713
				c1.549,0.501,3.211-0.348,3.713-1.898c0.009-0.027,0.009-0.053,0.017-0.081c5.684,1.581,10.698,2.359,9.887,0.773
				c-1.898-3.718,1.523-17.607,1.523-17.607c0.58-1.786,0.534-3.62,0-5.28h18.104v31.55h-53.952V298.967z M408.031,382.44v-4.284
				h16.933l-16.933-47.639h-9.625v-31.55h4.134l-39.249-39.249l-39.249,39.249h4.137v31.55H219.202l-16.929,47.639h16.929v4.284
				h-61.32l-11.979,33.7h11.979v82.105v9.732h61.32h4.559h55.868h30.949h6.079h30.952h55.893h4.53h61.352v-9.732V416.14h11.976
				l-11.976-33.7H408.031z"/>
			<path id="XMLID_925_" class="st14" d="M335.538,298.189h19.457c-0.101,0.274-4.815,12.958-9.077,15.133
				c-1.87,0.956,2.761,3.245,8.439,5.226c0,0.007-0.006,0.014-0.009,0.021c-0.544,1.533,0.346,3.211,1.896,3.713
				c1.549,0.501,3.211-0.348,3.713-1.898c0.009-0.027,0.009-0.053,0.017-0.081c5.684,1.581,10.698,2.359,9.887,0.773
				c-1.898-3.718,1.523-17.607,1.523-17.607c0.58-1.786,0.534-3.62,0-5.28h18.104v31.55h-53.952V298.189z M407.254,381.663v-4.284
				h16.933l-16.933-47.639h-9.625v-31.55h4.134l-39.249-39.249l-39.249,39.249h4.137v31.55H218.425l-16.929,47.639h16.929v4.284
				h-61.32l-11.979,33.7h11.979v82.105v9.732h61.32h4.559h55.868H309.8h6.079h30.952h55.893h4.53h61.352v-9.732v-82.105h11.976
				l-11.976-33.7H407.254z"/>
			<path id="XMLID_922_" class="st15" d="M334.761,297.412h19.457c-0.101,0.274-4.815,12.958-9.077,15.133
				c-1.87,0.956,2.761,3.245,8.439,5.226c0,0.007-0.006,0.014-0.009,0.021c-0.544,1.533,0.346,3.211,1.896,3.713
				c1.549,0.501,3.211-0.348,3.713-1.898c0.009-0.027,0.009-0.053,0.017-0.081c5.684,1.581,10.698,2.359,9.887,0.773
				c-1.898-3.718,1.523-17.607,1.523-17.607c0.58-1.786,0.534-3.62,0-5.28h18.104v31.55h-53.952V297.412z M406.476,380.885v-4.284
				h16.933l-16.933-47.639h-9.625v-31.55h4.134l-39.249-39.249l-39.249,39.249h4.137v31.55H217.647l-16.929,47.639h16.929v4.284
				h-61.32l-11.979,33.7h11.979v82.105v9.732h61.32h4.559h55.868h30.949h6.079h30.952h55.893h4.53h61.352v-9.732v-82.105h11.976
				l-11.976-33.7H406.476z"/>
			<path id="XMLID_919_" class="st16" d="M333.983,296.634h19.457c-0.101,0.274-4.815,12.958-9.077,15.133
				c-1.87,0.956,2.761,3.245,8.439,5.226c0,0.007-0.006,0.014-0.009,0.021c-0.544,1.533,0.346,3.211,1.896,3.713
				c1.549,0.501,3.211-0.348,3.713-1.898c0.009-0.027,0.009-0.053,0.017-0.081c5.684,1.581,10.698,2.359,9.887,0.773
				c-1.898-3.718,1.523-17.607,1.523-17.607c0.58-1.786,0.534-3.62,0-5.28h18.104v31.55h-53.952V296.634z M405.699,380.108v-4.284
				h16.933l-16.933-47.639h-9.625v-31.55h4.134l-39.249-39.249l-39.249,39.249h4.137v31.55H216.87l-16.929,47.639h16.929v4.284
				h-61.32l-11.979,33.7h11.979v82.105v9.732h61.32h4.559h55.868h30.949h6.079h30.951h55.893h4.53h61.352v-9.732v-82.105h11.976
				l-11.976-33.7H405.699z"/>
			<path id="XMLID_916_" class="st17" d="M333.206,295.857h19.457c-0.101,0.274-4.815,12.958-9.077,15.133
				c-1.87,0.956,2.761,3.245,8.439,5.226c0,0.007-0.006,0.014-0.009,0.021c-0.544,1.533,0.346,3.211,1.896,3.713
				c1.549,0.501,3.211-0.348,3.713-1.898c0.009-0.027,0.009-0.053,0.017-0.081c5.684,1.581,10.698,2.359,9.887,0.773
				c-1.898-3.718,1.523-17.607,1.523-17.607c0.58-1.786,0.534-3.62,0-5.28h18.104v31.55h-53.952V295.857z M404.921,379.33v-4.284
				h16.933l-16.933-47.639h-9.625v-31.55h4.134l-39.249-39.249l-39.249,39.249h4.137v31.55H216.093l-16.929,47.639h16.929v4.284
				h-61.32l-11.979,33.7h11.979v82.105v9.732h61.32h4.559h55.868h30.949h6.079h30.951h55.893h4.53h61.352v-9.732V413.03h11.976
				l-11.976-33.7H404.921z"/>
			<path id="XMLID_913_" class="st18" d="M332.428,295.079h19.457c-0.101,0.274-4.815,12.958-9.077,15.133
				c-1.87,0.956,2.761,3.245,8.439,5.226c0,0.007-0.006,0.014-0.009,0.021c-0.544,1.533,0.346,3.211,1.896,3.713
				c1.549,0.501,3.211-0.348,3.713-1.898c0.009-0.027,0.009-0.053,0.017-0.081c5.684,1.581,10.698,2.359,9.887,0.773
				c-1.898-3.718,1.523-17.607,1.523-17.607c0.58-1.786,0.534-3.62,0-5.28h18.104v31.55h-53.952V295.079z M404.144,378.553v-4.284
				h16.933l-16.933-47.639h-9.625v-31.55h4.134l-39.249-39.249l-39.249,39.249h4.137v31.55H215.315l-16.929,47.639h16.929v4.284
				h-61.32l-11.979,33.7h11.979v82.105v9.732h61.32h4.559h55.868h30.949h6.079h30.951h55.893h4.53h61.352v-9.732v-82.105h11.976
				l-11.976-33.7H404.144z"/>
			<path id="XMLID_910_" class="st19" d="M331.651,294.302h19.457c-0.101,0.274-4.815,12.958-9.077,15.133
				c-1.87,0.956,2.761,3.245,8.439,5.226c0,0.007-0.006,0.014-0.009,0.021c-0.544,1.533,0.346,3.211,1.896,3.713
				c1.549,0.501,3.211-0.348,3.713-1.898c0.009-0.027,0.009-0.053,0.017-0.081c5.684,1.581,10.698,2.359,9.887,0.773
				c-1.898-3.718,1.523-17.607,1.523-17.607c0.58-1.786,0.534-3.62,0-5.28h18.104v31.55h-53.952V294.302z M403.366,377.775v-4.284
				h16.933l-16.933-47.639h-9.625v-31.55h4.134l-39.249-39.249l-39.249,39.249h4.137v31.55H214.538l-16.929,47.639h16.929v4.284
				h-61.32l-11.979,33.7h11.979v82.105v9.732h61.32h4.559h55.868h30.949h6.079h30.951h55.893h4.53h61.352v-9.732v-82.105h11.976
				l-11.976-33.7H403.366z"/>
			<path id="XMLID_907_" class="st20" d="M330.874,293.524h19.457c-0.101,0.274-4.815,12.958-9.077,15.133
				c-1.87,0.956,2.761,3.245,8.439,5.226c0,0.007-0.006,0.014-0.009,0.021c-0.544,1.533,0.346,3.211,1.896,3.713
				c1.549,0.501,3.211-0.348,3.713-1.898c0.009-0.027,0.009-0.053,0.017-0.081c5.684,1.581,10.698,2.359,9.887,0.773
				c-1.898-3.718,1.523-17.607,1.523-17.607c0.58-1.786,0.534-3.62,0-5.28h18.104v31.55h-53.952V293.524z M402.589,376.998v-4.284
				h16.933l-16.933-47.639h-9.625v-31.55h4.134l-39.249-39.249L318.6,293.524h4.137v31.55H213.76l-16.929,47.639h16.929v4.284
				h-61.32l-11.979,33.7h11.979v82.105v9.732h61.32h4.559h55.868h30.949h6.079h30.951h55.893h4.53h61.352v-9.732v-82.105h11.976
				l-11.976-33.7H402.589z"/>
			<path id="XMLID_904_" class="st21" d="M330.096,292.747h19.457c-0.101,0.274-4.815,12.958-9.077,15.133
				c-1.87,0.956,2.761,3.245,8.439,5.226c0,0.007-0.006,0.014-0.009,0.021c-0.544,1.533,0.346,3.211,1.895,3.713
				c1.549,0.501,3.211-0.348,3.713-1.898c0.009-0.027,0.009-0.053,0.017-0.081c5.684,1.581,10.698,2.359,9.887,0.773
				c-1.898-3.718,1.523-17.607,1.523-17.607c0.58-1.786,0.534-3.62,0-5.28h18.104v31.55h-53.952V292.747z M401.811,376.221v-4.284
				h16.933l-16.933-47.639h-9.625v-31.55h4.134l-39.249-39.249l-39.249,39.249h4.137v31.55H212.983l-16.929,47.639h16.929v4.284
				h-61.32l-11.979,33.7h11.979v82.105v9.732h61.32h4.559h55.868h30.949h6.079h30.951h55.893h4.53h61.352v-9.732V409.92h11.976
				l-11.976-33.7H401.811z"/>
			<path id="XMLID_901_" class="st22" d="M329.319,291.969h19.457c-0.101,0.274-4.815,12.958-9.077,15.133
				c-1.87,0.956,2.761,3.245,8.439,5.226c0,0.007-0.006,0.014-0.009,0.021c-0.544,1.533,0.346,3.211,1.895,3.713
				c1.549,0.501,3.211-0.348,3.713-1.898c0.009-0.027,0.009-0.053,0.017-0.081c5.684,1.581,10.698,2.359,9.887,0.773
				c-1.898-3.718,1.523-17.607,1.523-17.607c0.58-1.786,0.534-3.62,0-5.28h18.104v31.55h-53.952V291.969z M401.034,375.443v-4.284
				h16.933l-16.933-47.639h-9.625v-31.55h4.134l-39.249-39.249l-39.249,39.249h4.137v31.55H212.205l-16.929,47.639h16.929v4.284
				h-61.32l-11.979,33.7h11.979v82.105v9.732h61.32h4.559h55.868h30.949h6.079h30.951h55.893h4.53h61.352v-9.732v-82.105h11.976
				l-11.976-33.7H401.034z"/>
			<path id="XMLID_898_" class="st23" d="M328.541,291.192h19.457c-0.101,0.274-4.815,12.958-9.077,15.133
				c-1.87,0.956,2.761,3.245,8.439,5.226c0,0.007-0.006,0.013-0.009,0.021c-0.544,1.533,0.346,3.211,1.895,3.713
				c1.549,0.501,3.211-0.348,3.713-1.898c0.009-0.027,0.009-0.053,0.017-0.081c5.684,1.581,10.698,2.359,9.887,0.773
				c-1.898-3.718,1.523-17.607,1.523-17.607c0.58-1.786,0.534-3.62,0-5.28h18.104v31.55h-53.952V291.192z M400.256,374.666v-4.284
				h16.933l-16.933-47.639h-9.625v-31.55h4.134l-39.249-39.249l-39.249,39.249h4.137v31.55H211.428l-16.929,47.639h16.929v4.284
				h-61.32l-11.979,33.7h11.979v82.105v9.732h61.32h4.559h55.868h30.949h6.079h30.951h55.893h4.53h61.352v-9.732v-82.105h11.976
				l-11.976-33.7H400.256z"/>
			<path id="XMLID_895_" class="st24" d="M327.764,290.414h19.457c-0.101,0.274-4.815,12.958-9.077,15.133
				c-1.87,0.956,2.761,3.245,8.439,5.226c0,0.007-0.006,0.014-0.009,0.021c-0.544,1.533,0.346,3.211,1.896,3.713
				c1.549,0.501,3.211-0.348,3.713-1.898c0.009-0.027,0.009-0.053,0.017-0.081c5.684,1.581,10.698,2.359,9.887,0.773
				c-1.898-3.718,1.523-17.607,1.523-17.607c0.58-1.786,0.534-3.62,0-5.28h18.104v31.55h-53.952V290.414z M399.479,373.888v-4.284
				h16.933l-16.933-47.639h-9.625v-31.55h4.134l-39.249-39.249l-39.249,39.249h4.137v31.55H210.65l-16.929,47.639h16.929v4.284
				h-61.32l-11.979,33.7h11.979v82.105v9.732h61.32h4.559h55.868h30.949h6.079h30.951h55.893h4.53h61.352v-9.732v-82.105h11.976
				l-11.976-33.7H399.479z"/>
			<path id="XMLID_892_" class="st25" d="M326.986,289.637h19.457c-0.101,0.274-4.815,12.958-9.077,15.133
				c-1.87,0.956,2.761,3.245,8.439,5.226c0,0.007-0.006,0.014-0.009,0.021c-0.544,1.533,0.346,3.211,1.896,3.713
				c1.549,0.501,3.211-0.348,3.713-1.898c0.009-0.027,0.009-0.053,0.017-0.081c5.684,1.581,10.698,2.359,9.887,0.773
				c-1.898-3.718,1.523-17.607,1.523-17.607c0.58-1.786,0.534-3.62,0-5.28h18.104v31.55h-53.952V289.637z M398.702,373.111v-4.284
				h16.933l-16.933-47.639h-9.625v-31.55h4.134l-39.249-39.249l-39.249,39.249h4.137v31.55H209.873l-16.929,47.639h16.929v4.284
				h-61.32l-11.979,33.7h11.979v82.105v9.732h61.32h4.559h55.868h30.949h6.079h30.952h55.893h4.53h61.352v-9.732V406.81h11.976
				l-11.976-33.7H398.702z"/>
			<path id="XMLID_889_" class="st26" d="M326.209,288.86h19.457c-0.101,0.274-4.815,12.958-9.077,15.133
				c-1.87,0.956,2.761,3.245,8.439,5.226c0,0.007-0.006,0.014-0.009,0.021c-0.544,1.533,0.346,3.211,1.896,3.713
				c1.549,0.501,3.211-0.348,3.713-1.898c0.009-0.027,0.009-0.053,0.017-0.081c5.684,1.581,10.698,2.359,9.887,0.773
				c-1.898-3.718,1.523-17.607,1.523-17.607c0.58-1.786,0.534-3.62,0-5.28h18.104v31.55h-53.952V288.86z M397.924,372.333v-4.284
				h16.933l-16.933-47.639h-9.625v-31.55h4.134l-39.249-39.249l-39.249,39.249h4.137v31.55H209.095l-16.929,47.639h16.929v4.284
				h-61.32l-11.979,33.7h11.979v82.105v9.732h61.32h4.559h55.868h30.949h6.079h30.952h55.893h4.53h61.352v-9.732v-82.105h11.976
				l-11.976-33.7H397.924z"/>
			<path id="XMLID_886_" class="st27" d="M325.431,288.082h19.457c-0.101,0.274-4.815,12.958-9.077,15.133
				c-1.87,0.956,2.761,3.245,8.439,5.226c0,0.007-0.006,0.014-0.009,0.021c-0.544,1.533,0.346,3.211,1.896,3.713
				c1.549,0.501,3.211-0.348,3.713-1.898c0.009-0.027,0.009-0.053,0.017-0.081c5.684,1.581,10.698,2.359,9.887,0.773
				c-1.898-3.718,1.523-17.607,1.523-17.607c0.58-1.786,0.534-3.62,0-5.28h18.104v31.55h-53.952V288.082z M397.147,371.556v-4.284
				h16.933l-16.933-47.639h-9.625v-31.55h4.134l-39.249-39.249l-39.249,39.249h4.137v31.55H208.318l-16.929,47.639h16.929v4.284
				h-61.32l-11.979,33.7h11.979v82.105v9.732h61.32h4.559h55.868h30.949h6.079h30.952h55.893h4.53h61.352v-9.732v-82.105h11.976
				l-11.976-33.7H397.147z"/>
			<path id="XMLID_883_" class="st28" d="M324.654,287.305h19.457c-0.101,0.274-4.815,12.958-9.077,15.133
				c-1.87,0.956,2.761,3.245,8.439,5.226c0,0.007-0.006,0.014-0.009,0.021c-0.544,1.533,0.346,3.211,1.896,3.713
				c1.549,0.501,3.211-0.348,3.713-1.898c0.009-0.027,0.009-0.053,0.017-0.081c5.684,1.581,10.698,2.359,9.887,0.773
				c-1.898-3.718,1.523-17.607,1.523-17.607c0.58-1.786,0.534-3.62,0-5.28h18.104v31.55h-53.952V287.305z M396.369,370.778v-4.284
				h16.933l-16.933-47.639h-9.625v-31.55h4.134l-39.249-39.249l-39.249,39.249h4.137v31.55H207.541l-16.929,47.639h16.929v4.284
				h-61.32l-11.979,33.7h11.979v82.105v9.732h61.32h4.559h55.868h30.949h6.079h30.951h55.893h4.53h61.352v-9.732v-82.105h11.976
				l-11.976-33.7H396.369z"/>
			<path id="XMLID_880_" class="st29" d="M323.876,286.527h19.457c-0.101,0.274-4.815,12.958-9.077,15.133
				c-1.87,0.956,2.761,3.245,8.439,5.226c0,0.007-0.006,0.014-0.009,0.021c-0.544,1.533,0.346,3.211,1.896,3.713
				c1.549,0.501,3.211-0.348,3.713-1.898c0.009-0.027,0.009-0.053,0.017-0.081c5.684,1.581,10.698,2.359,9.887,0.773
				c-1.898-3.718,1.523-17.607,1.523-17.607c0.58-1.786,0.534-3.62,0-5.28h18.104v31.55h-53.952V286.527z M395.592,370.001v-4.284
				h16.933l-16.933-47.639h-9.625v-31.55h4.134l-39.249-39.249l-39.249,39.249h4.137v31.55H206.763l-16.929,47.639h16.929v4.284
				h-61.32l-11.979,33.7h11.979v82.105v9.732h61.32h4.559h55.868h30.949h6.079h30.951h55.893h4.53h61.352v-9.732v-82.105h11.976
				l-11.976-33.7H395.592z"/>
			<path id="XMLID_877_" class="st30" d="M323.099,285.75h19.457c-0.101,0.274-4.815,12.958-9.077,15.133
				c-1.87,0.956,2.761,3.245,8.439,5.226c0,0.007-0.006,0.014-0.009,0.021c-0.544,1.533,0.346,3.211,1.896,3.713
				c1.549,0.501,3.211-0.348,3.713-1.898c0.009-0.027,0.009-0.053,0.017-0.081c5.684,1.581,10.698,2.359,9.887,0.773
				c-1.898-3.718,1.523-17.607,1.523-17.607c0.58-1.786,0.534-3.62,0-5.28h18.104v31.55h-53.952V285.75z M394.814,369.223v-4.284
				h16.933L394.814,317.3h-9.625v-31.55h4.134l-39.249-39.249l-39.249,39.249h4.137v31.55H205.986l-16.929,47.639h16.929v4.284
				h-61.32l-11.979,33.7h11.979v82.105v9.732h61.32h4.559h55.868h30.949h6.079h30.951h55.893h4.53h61.352v-9.732v-82.105h11.976
				l-11.976-33.7H394.814z"/>
			<path id="XMLID_874_" class="st31" d="M322.321,284.972h19.457c-0.101,0.274-4.815,12.958-9.077,15.133
				c-1.87,0.956,2.761,3.245,8.439,5.226c0,0.007-0.006,0.014-0.009,0.021c-0.544,1.533,0.346,3.211,1.896,3.713
				c1.549,0.501,3.211-0.348,3.713-1.898c0.009-0.027,0.009-0.053,0.017-0.081c5.684,1.581,10.698,2.359,9.887,0.773
				c-1.898-3.718,1.523-17.607,1.523-17.607c0.58-1.786,0.534-3.62,0-5.28h18.104v31.55h-53.952V284.972z M394.037,368.446v-4.284
				h16.933l-16.933-47.639h-9.625v-31.55h4.134l-39.249-39.249l-39.249,39.249h4.137v31.55H205.208l-16.929,47.639h16.929v4.284
				h-61.32l-11.979,33.7h11.979v82.105v9.732h61.32h4.559h55.868h30.949h6.079h30.951h55.893h4.53h61.352v-9.732v-82.105h11.976
				l-11.976-33.7H394.037z"/>
			<path id="XMLID_871_" class="st32" d="M321.544,284.195h19.457c-0.101,0.274-4.815,12.958-9.077,15.133
				c-1.87,0.956,2.761,3.245,8.439,5.226c0,0.007-0.006,0.014-0.009,0.021c-0.544,1.533,0.346,3.211,1.896,3.713
				c1.549,0.501,3.211-0.348,3.713-1.898c0.009-0.027,0.009-0.053,0.017-0.081c5.684,1.581,10.698,2.359,9.887,0.773
				c-1.898-3.718,1.523-17.607,1.523-17.607c0.58-1.786,0.534-3.62,0-5.28h18.104v31.55h-53.952V284.195z M393.259,367.668v-4.284
				h16.933l-16.933-47.639h-9.625v-31.55h4.134l-39.249-39.249l-39.249,39.249h4.137v31.55H204.431l-16.929,47.639h16.929v4.284
				h-61.32l-11.979,33.7h11.979v82.105v9.732h61.32h4.559h55.868h30.949h6.079h30.951h55.893h4.53h61.352v-9.732v-82.105h11.976
				l-11.976-33.7H393.259z"/>
			<path id="XMLID_868_" class="st33" d="M320.767,283.417h19.457c-0.101,0.274-4.815,12.958-9.077,15.133
				c-1.87,0.956,2.761,3.245,8.439,5.226c0,0.007-0.006,0.014-0.009,0.021c-0.544,1.533,0.346,3.211,1.895,3.713
				c1.549,0.501,3.211-0.348,3.713-1.898c0.009-0.027,0.009-0.053,0.017-0.081c5.684,1.581,10.698,2.359,9.887,0.773
				c-1.898-3.718,1.523-17.607,1.523-17.607c0.58-1.786,0.534-3.62,0-5.28h18.104v31.55h-53.952V283.417z M392.482,366.891v-4.284
				h16.933l-16.933-47.639h-9.625v-31.55h4.134l-39.249-39.249l-39.249,39.249h4.137v31.55H203.653l-16.929,47.639h16.929v4.284
				h-61.32l-11.979,33.7h11.979v82.105v9.732h61.32h4.559h55.868h30.949h6.079h30.951h55.893h4.53h61.352v-9.732v-82.105h11.976
				l-11.976-33.7H392.482z"/>
			<path id="XMLID_865_" class="st34" d="M319.989,282.64h19.457c-0.101,0.274-4.815,12.958-9.077,15.133
				c-1.87,0.956,2.761,3.245,8.439,5.226c0,0.007-0.006,0.014-0.009,0.021c-0.544,1.533,0.346,3.211,1.895,3.713
				c1.549,0.501,3.211-0.348,3.713-1.898c0.009-0.027,0.009-0.053,0.017-0.081c5.684,1.581,10.698,2.359,9.887,0.773
				c-1.898-3.718,1.523-17.607,1.523-17.607c0.58-1.786,0.534-3.62,0-5.28h18.104v31.55h-53.952V282.64z M391.704,366.114v-4.284
				h16.933l-16.933-47.639h-9.625v-31.55h4.134l-39.249-39.249l-39.249,39.249h4.137v31.55H202.876l-16.929,47.639h16.929v4.284
				h-61.32l-11.979,33.7h11.979v82.105v9.732h61.32h4.559h55.868h30.949h6.079h30.951h55.893h4.53h61.352v-9.732v-82.105h11.976
				l-11.976-33.7H391.704z"/>
			<path id="XMLID_862_" class="st35" d="M319.212,281.862h19.457c-0.101,0.274-4.815,12.958-9.077,15.133
				c-1.87,0.956,2.761,3.245,8.439,5.226c0,0.007-0.006,0.013-0.009,0.021c-0.544,1.533,0.346,3.211,1.895,3.713
				c1.549,0.501,3.211-0.348,3.713-1.898c0.009-0.027,0.009-0.053,0.017-0.081c5.684,1.581,10.698,2.359,9.887,0.773
				c-1.898-3.718,1.523-17.607,1.523-17.607c0.58-1.786,0.534-3.62,0-5.28h18.104v31.55h-53.952V281.862z M390.927,365.336v-4.284
				h16.933l-16.933-47.639h-9.625v-31.55h4.134l-39.249-39.249l-39.249,39.249h4.137v31.55H202.098l-16.929,47.639h16.929v4.284
				h-61.32l-11.979,33.7h11.979v82.105v9.732h61.32h4.559h55.868h30.949h6.079h30.951h55.893h4.53h61.352v-9.732v-82.105h11.976
				l-11.976-33.7H390.927z"/>
			<path id="XMLID_859_" class="st36" d="M318.434,281.085h19.457c-0.101,0.274-4.815,12.958-9.077,15.133
				c-1.87,0.956,2.761,3.245,8.439,5.226c0,0.007-0.006,0.014-0.009,0.021c-0.544,1.533,0.346,3.211,1.896,3.713
				c1.549,0.501,3.211-0.348,3.713-1.898c0.009-0.027,0.009-0.053,0.017-0.081c5.684,1.581,10.698,2.359,9.887,0.773
				c-1.898-3.718,1.523-17.607,1.523-17.607c0.58-1.786,0.534-3.62,0-5.28h18.104v31.55h-53.952V281.085z M390.149,364.559v-4.284
				h16.933l-16.933-47.639h-9.625v-31.55h4.134l-39.249-39.249l-39.249,39.249h4.137v31.55H201.321l-16.929,47.639h16.929v4.284
				h-61.32l-11.979,33.7h11.979v82.105v9.732h61.32h4.559h55.868h30.949h6.079h30.952h55.893h4.53h61.352v-9.732v-82.105h11.976
				l-11.976-33.7H390.149z"/>
			<path id="XMLID_856_" class="st37" d="M317.657,280.307h19.457c-0.101,0.274-4.815,12.958-9.077,15.133
				c-1.87,0.956,2.761,3.245,8.439,5.226c0,0.007-0.006,0.014-0.009,0.021c-0.544,1.533,0.346,3.211,1.896,3.713
				c1.549,0.501,3.211-0.348,3.713-1.898c0.009-0.027,0.009-0.053,0.017-0.081c5.684,1.581,10.698,2.359,9.887,0.773
				c-1.898-3.718,1.523-17.607,1.523-17.607c0.58-1.786,0.534-3.62,0-5.28h18.104v31.55h-53.952V280.307z M389.372,363.781v-4.284
				h16.933l-16.933-47.639h-9.625v-31.55h4.134l-39.249-39.249l-39.249,39.249h4.137v31.55H200.543l-16.929,47.639h16.929v4.284
				h-61.32l-11.979,33.7h11.979v82.105v9.732h61.32h4.559h55.868h30.949h6.079h30.952h55.893h4.53h61.352v-9.732v-82.105H462.7
				l-11.976-33.7H389.372z"/>
			<path id="XMLID_853_" class="st38" d="M316.879,279.53h19.457c-0.101,0.274-4.815,12.958-9.077,15.133
				c-1.87,0.956,2.761,3.245,8.439,5.226c0,0.007-0.006,0.014-0.009,0.021c-0.544,1.533,0.346,3.211,1.896,3.713
				c1.549,0.501,3.211-0.348,3.713-1.898c0.009-0.027,0.009-0.053,0.017-0.081c5.684,1.581,10.698,2.359,9.887,0.773
				c-1.898-3.718,1.523-17.607,1.523-17.607c0.58-1.786,0.534-3.62,0-5.28h18.104v31.55h-53.952V279.53z M388.595,363.004v-4.284
				h16.933l-16.933-47.639h-9.625v-31.55h4.134l-39.249-39.249l-39.249,39.249h4.137v31.55H199.766l-16.929,47.639h16.929v4.284
				h-61.32l-11.979,33.7h11.979v82.105v9.732h61.32h4.559h55.868h30.949h6.079h30.952h55.893h4.53h61.352v-9.732v-82.105h11.976
				l-11.976-33.7H388.595z"/>
			<path id="XMLID_850_" class="st39" d="M316.102,278.753h19.457c-0.101,0.274-4.815,12.958-9.077,15.133
				c-1.87,0.956,2.761,3.245,8.439,5.226c0,0.007-0.006,0.014-0.009,0.021c-0.544,1.533,0.346,3.211,1.896,3.713
				c1.549,0.501,3.211-0.348,3.713-1.898c0.009-0.027,0.009-0.053,0.017-0.081c5.684,1.581,10.698,2.359,9.887,0.773
				c-1.898-3.718,1.523-17.607,1.523-17.607c0.58-1.786,0.534-3.62,0-5.28h18.104v31.55h-53.952V278.753z M387.817,362.226v-4.284
				h16.933l-16.933-47.639h-9.625v-31.55h4.134l-39.249-39.249l-39.249,39.249h4.137v31.55H198.989l-16.929,47.639h16.929v4.284
				h-61.32l-11.979,33.7h11.979v82.105v9.732h61.32h4.559h55.868h30.949h6.079h30.952h55.893h4.53h61.352v-9.732v-82.105h11.976
				l-11.976-33.7H387.817z"/>
			<path id="XMLID_847_" class="st40" d="M315.324,277.975h19.457c-0.101,0.274-4.815,12.958-9.077,15.133
				c-1.87,0.956,2.761,3.245,8.439,5.226c0,0.007-0.006,0.014-0.009,0.021c-0.544,1.533,0.346,3.211,1.896,3.713
				c1.549,0.501,3.211-0.348,3.713-1.898c0.009-0.027,0.009-0.053,0.017-0.081c5.684,1.581,10.698,2.359,9.887,0.773
				c-1.898-3.718,1.523-17.607,1.523-17.607c0.58-1.786,0.534-3.62,0-5.28h18.104v31.55h-53.952V277.975z M387.04,361.449v-4.284
				h16.933l-16.933-47.639h-9.625v-31.55h4.134L342.3,238.726l-39.249,39.249h4.137v31.55H198.211l-16.929,47.639h16.929v4.284
				h-61.32l-11.979,33.7h11.979v82.105v9.732h61.32h4.559h55.868h30.949h6.079h30.951h55.893h4.53h61.352v-9.732v-82.105h11.976
				l-11.976-33.7H387.04z"/>
			<path id="XMLID_844_" class="st41" d="M314.547,277.198h19.457c-0.101,0.274-4.815,12.958-9.077,15.133
				c-1.87,0.956,2.761,3.245,8.439,5.226c0,0.007-0.006,0.014-0.009,0.021c-0.544,1.533,0.346,3.211,1.896,3.713
				c1.549,0.501,3.211-0.348,3.713-1.898c0.009-0.027,0.009-0.053,0.017-0.081c5.684,1.581,10.698,2.359,9.887,0.773
				c-1.898-3.718,1.523-17.607,1.523-17.607c0.58-1.786,0.534-3.62,0-5.28h18.104v31.55h-53.952V277.198z M386.262,360.671v-4.284
				h16.933l-16.933-47.639h-9.625v-31.55h4.134l-39.249-39.249l-39.249,39.249h4.137v31.55H197.434l-16.929,47.639h16.929v4.284
				h-61.32l-11.979,33.7h11.979v82.105v9.732h61.32h4.559h55.868h30.949h6.079h30.951h55.893h4.53h61.352v-9.732v-82.105h11.976
				l-11.976-33.7H386.262z"/>
			<path id="XMLID_841_" class="st42" d="M313.769,276.42h19.457c-0.101,0.274-4.815,12.958-9.077,15.133
				c-1.87,0.956,2.761,3.245,8.439,5.226c0,0.007-0.006,0.014-0.009,0.021c-0.544,1.533,0.346,3.211,1.896,3.713
				c1.549,0.501,3.211-0.348,3.713-1.898c0.009-0.027,0.009-0.053,0.017-0.081c5.684,1.581,10.698,2.359,9.887,0.773
				c-1.898-3.718,1.523-17.607,1.523-17.607c0.58-1.786,0.534-3.62,0-5.28h18.104v31.55h-53.952V276.42z M385.485,359.894v-4.284
				h16.933l-16.933-47.639h-9.625v-31.55h4.134l-39.249-39.249l-39.249,39.249h4.137v31.55H196.656l-16.929,47.639h16.929v4.284
				h-61.32l-11.979,33.7h11.979v82.105v9.732h61.32h4.559h55.867h30.949h6.079h30.951h55.893h4.53h61.352v-9.732v-82.105h11.976
				l-11.976-33.7H385.485z"/>
			<path id="XMLID_838_" class="st43" d="M312.992,275.643h19.457c-0.101,0.274-4.815,12.958-9.077,15.133
				c-1.87,0.956,2.761,3.245,8.439,5.226c0,0.007-0.006,0.014-0.009,0.021c-0.544,1.533,0.346,3.211,1.896,3.713
				c1.549,0.501,3.211-0.348,3.713-1.898c0.009-0.027,0.009-0.053,0.017-0.081c5.684,1.581,10.698,2.359,9.887,0.773
				c-1.898-3.718,1.523-17.607,1.523-17.607c0.58-1.786,0.534-3.62,0-5.28h18.104v31.55h-53.952V275.643z M384.707,359.116v-4.284
				h16.933l-16.933-47.639h-9.625v-31.55h4.134l-39.249-39.249l-39.249,39.249h4.137v31.55H195.879l-16.929,47.639h16.929v4.284
				h-61.32l-11.979,33.7h11.979v82.105v9.732h61.32h4.559h55.867h30.949h6.079h30.951h55.893h4.53h61.352v-9.732v-82.105h11.976
				l-11.976-33.7H384.707z"/>
			<path id="XMLID_835_" class="st44" d="M312.214,274.865h19.457c-0.101,0.274-4.815,12.958-9.077,15.133
				c-1.87,0.956,2.761,3.245,8.439,5.226c0,0.007-0.006,0.014-0.009,0.021c-0.544,1.533,0.346,3.211,1.896,3.713
				c1.549,0.501,3.211-0.348,3.713-1.898c0.009-0.027,0.009-0.053,0.017-0.081c5.684,1.581,10.698,2.359,9.887,0.773
				c-1.898-3.718,1.523-17.607,1.523-17.607c0.58-1.786,0.534-3.62,0-5.28h18.104v31.55h-53.952V274.865z M383.93,358.339v-4.284
				h16.933l-16.933-47.639h-9.625v-31.55h4.134l-39.249-39.249l-39.249,39.249h4.137v31.55H195.101l-16.929,47.639h16.929v4.284
				h-61.32l-11.979,33.7h11.979v82.105v9.732h61.32h4.559h55.867h30.949h6.079h30.951H379.4h4.53h61.352v-9.732v-82.105h11.976
				l-11.976-33.7H383.93z"/>
			<path id="XMLID_832_" class="st45" d="M311.437,274.088h19.457c-0.101,0.274-4.815,12.958-9.077,15.133
				c-1.87,0.956,2.761,3.245,8.439,5.226c0,0.007-0.006,0.014-0.009,0.021c-0.544,1.533,0.346,3.211,1.895,3.713
				c1.549,0.501,3.211-0.348,3.713-1.898c0.009-0.027,0.009-0.053,0.017-0.081c5.684,1.581,10.698,2.359,9.887,0.773
				c-1.898-3.718,1.523-17.607,1.523-17.607c0.58-1.786,0.534-3.62,0-5.28h18.104v31.55h-53.952V274.088z M383.152,357.561v-4.284
				h16.933l-16.933-47.639h-9.625v-31.55h4.134l-39.249-39.249l-39.249,39.249h4.137v31.55H194.324l-16.929,47.639h16.929v4.284
				h-61.32l-11.979,33.7h11.979v82.105v9.732h61.32h4.559h55.867h30.949h6.079h30.951h55.893h4.53h61.352v-9.732v-82.105h11.976
				l-11.976-33.7H383.152z"/>
			<path id="XMLID_829_" class="st46" d="M310.659,273.31h19.457c-0.101,0.274-4.815,12.958-9.077,15.133
				c-1.87,0.956,2.761,3.245,8.439,5.226c0,0.007-0.006,0.014-0.009,0.021c-0.544,1.533,0.346,3.211,1.895,3.713
				c1.549,0.501,3.211-0.348,3.713-1.898c0.009-0.027,0.009-0.053,0.017-0.081c5.684,1.581,10.698,2.359,9.887,0.773
				c-1.898-3.718,1.523-17.607,1.523-17.607c0.58-1.786,0.534-3.62,0-5.28h18.104v31.55h-53.952V273.31z M382.375,356.784V352.5
				h16.933l-16.933-47.639h-9.625v-31.55h4.134l-39.249-39.249l-39.249,39.249h4.137v31.55H193.546L176.617,352.5h16.929v4.284
				h-61.32l-11.979,33.7h11.979v82.105v9.732h61.32h4.559h55.867h30.949H291h30.951h55.893h4.53h61.352v-9.732v-82.105h11.976
				l-11.976-33.7H382.375z"/>
			<path id="XMLID_826_" class="st47" d="M309.882,272.533h19.457c-0.101,0.274-4.815,12.958-9.077,15.133
				c-1.87,0.956,2.761,3.245,8.439,5.226c0,0.007-0.006,0.013-0.009,0.021c-0.544,1.533,0.346,3.211,1.895,3.713
				c1.549,0.501,3.211-0.348,3.713-1.898c0.009-0.027,0.009-0.053,0.017-0.081c5.684,1.581,10.698,2.359,9.887,0.773
				c-1.898-3.718,1.523-17.607,1.523-17.607c0.58-1.786,0.534-3.62,0-5.28h18.104v31.55h-53.952V272.533z M381.597,356.007v-4.284
				h16.933l-16.933-47.639h-9.625v-31.55h4.134l-39.249-39.249l-39.249,39.249h4.137v31.55H192.769l-16.929,47.639h16.929v4.284
				h-61.32l-11.979,33.7h11.979v82.105v9.732h61.32h4.559h55.867h30.949h6.079h30.951h55.893h4.53h61.352v-9.732v-82.105h11.976
				l-11.976-33.7H381.597z"/>
			<path id="XMLID_823_" class="st48" d="M309.105,271.755h19.457c-0.101,0.274-4.815,12.958-9.077,15.133
				c-1.87,0.956,2.761,3.245,8.439,5.226c0,0.007-0.006,0.014-0.009,0.021c-0.544,1.533,0.346,3.211,1.896,3.713
				c1.549,0.501,3.211-0.348,3.713-1.898c0.009-0.027,0.009-0.053,0.017-0.081c5.684,1.581,10.698,2.359,9.887,0.773
				c-1.898-3.718,1.523-17.607,1.523-17.607c0.58-1.786,0.534-3.62,0-5.28h18.104v31.55h-53.952V271.755z M380.82,355.229v-4.284
				h16.933l-16.933-47.639h-9.625v-31.55h4.134l-39.249-39.249l-39.249,39.249h4.137v31.55H191.991l-16.929,47.639h16.929v4.284
				h-61.32l-11.979,33.7h11.979v82.105v9.732h61.32h4.559h55.867h30.949h6.079h30.952h55.893h4.53h61.352v-9.732v-82.105h11.976
				l-11.976-33.7H380.82z"/>
			<path id="XMLID_820_" class="st49" d="M308.327,270.978h19.457c-0.101,0.274-4.815,12.958-9.077,15.133
				c-1.87,0.956,2.761,3.245,8.439,5.226c0,0.007-0.006,0.014-0.009,0.021c-0.544,1.533,0.346,3.211,1.896,3.713
				c1.549,0.501,3.211-0.348,3.713-1.898c0.009-0.027,0.009-0.053,0.017-0.081c5.684,1.581,10.698,2.359,9.887,0.773
				c-1.898-3.718,1.523-17.607,1.523-17.607c0.58-1.786,0.534-3.62,0-5.28h18.104v31.55h-53.952V270.978z M380.042,354.452v-4.284
				h16.933l-16.933-47.639h-9.625v-31.55h4.134l-39.249-39.249l-39.249,39.249h4.137v31.55H191.214l-16.929,47.639h16.929v4.284
				h-61.32l-11.979,33.7h11.979v82.105v9.732h61.32h4.559h55.867h30.949h6.079h30.952h55.893h4.53h61.352v-9.732v-82.105h11.976
				l-11.976-33.7H380.042z"/>
			<path id="XMLID_817_" class="st50" d="M307.55,270.2h19.457c-0.101,0.274-4.815,12.958-9.077,15.133
				c-1.87,0.956,2.761,3.245,8.439,5.226c0,0.007-0.006,0.014-0.009,0.021c-0.544,1.533,0.346,3.211,1.896,3.713
				c1.549,0.501,3.211-0.348,3.713-1.898c0.009-0.027,0.009-0.053,0.017-0.081c5.684,1.581,10.698,2.359,9.887,0.773
				c-1.898-3.718,1.523-17.607,1.523-17.607c0.58-1.786,0.534-3.62,0-5.28h18.104v31.55H307.55V270.2z M379.265,353.674v-4.284
				h16.933l-16.933-47.639h-9.625V270.2h4.134l-39.249-39.249L295.276,270.2h4.137v31.55H190.437l-16.929,47.639h16.929v4.284
				h-61.32l-11.979,33.7h11.979v82.105v9.732h61.32h4.559h55.867h30.949h6.079h30.952h55.893h4.53h61.352v-9.732v-82.105h11.976
				l-11.976-33.7H379.265z"/>
			<path id="XMLID_814_" class="st51" d="M306.772,269.423h19.457c-0.101,0.274-4.815,12.958-9.077,15.133
				c-1.87,0.956,2.761,3.245,8.439,5.226c0,0.007-0.006,0.014-0.009,0.021c-0.544,1.533,0.346,3.211,1.896,3.713
				c1.549,0.501,3.211-0.348,3.713-1.898c0.009-0.027,0.009-0.053,0.017-0.081c5.684,1.581,10.698,2.359,9.887,0.773
				c-1.898-3.718,1.523-17.607,1.523-17.607c0.58-1.786,0.534-3.62,0-5.28h18.104v31.55h-53.952V269.423z M378.487,352.897v-4.284
				h16.933l-16.933-47.639h-9.625v-31.55h4.134l-39.249-39.249l-39.249,39.249h4.137v31.55H189.659l-16.929,47.639h16.929v4.284
				h-61.32l-11.979,33.7h11.979v82.105v9.732h61.32h4.559h55.867h30.949h6.079h30.952h55.893h4.53h61.352v-9.732v-82.105h11.976
				l-11.976-33.7H378.487z"/>
			<path id="XMLID_811_" class="st52" d="M305.995,268.646h19.457c-0.101,0.274-4.815,12.958-9.077,15.133
				c-1.87,0.956,2.761,3.245,8.439,5.226c0,0.007-0.006,0.014-0.009,0.021c-0.544,1.533,0.346,3.211,1.896,3.713
				c1.549,0.501,3.211-0.348,3.713-1.898c0.009-0.027,0.009-0.053,0.017-0.081c5.684,1.581,10.698,2.359,9.887,0.773
				c-1.898-3.718,1.523-17.607,1.523-17.607c0.58-1.786,0.534-3.62,0-5.28h18.104v31.55h-53.952V268.646z M377.71,352.119v-4.284
				h16.933l-16.933-47.639h-9.625v-31.55h4.134l-39.249-39.249l-39.249,39.249h4.137v31.55H188.882l-16.93,47.639h16.93v4.284
				h-61.32l-11.979,33.7h11.979v82.105v9.732h61.32h4.559h55.867h30.949h6.079h30.951h55.893h4.53h61.352v-9.732v-82.105h11.976
				l-11.976-33.7H377.71z"/>
			<path id="XMLID_808_" class="st53" d="M305.217,267.868h19.457c-0.101,0.274-4.815,12.958-9.077,15.133
				c-1.87,0.956,2.761,3.245,8.439,5.226c0,0.007-0.006,0.014-0.009,0.021c-0.544,1.533,0.346,3.211,1.896,3.713
				c1.549,0.501,3.211-0.348,3.713-1.898c0.009-0.027,0.009-0.053,0.017-0.081c5.684,1.581,10.698,2.359,9.887,0.773
				c-1.898-3.718,1.523-17.607,1.523-17.607c0.58-1.786,0.534-3.62,0-5.28h18.104v31.55h-53.952V267.868z M376.933,351.342v-4.284
				h16.933l-16.933-47.639h-9.625v-31.55h4.134l-39.249-39.249l-39.249,39.249h4.137v31.55H188.104l-16.93,47.639h16.93v4.284
				h-61.32l-11.979,33.7h11.979v82.105v9.732h61.32h4.559h55.867h30.949h6.079h30.951h55.893h4.53h61.352v-9.732v-82.105h11.976
				l-11.976-33.7H376.933z"/>
			<path id="XMLID_805_" class="st54" d="M304.44,267.091h19.457c-0.101,0.274-4.815,12.958-9.077,15.133
				c-1.87,0.956,2.761,3.245,8.439,5.226c0,0.007-0.006,0.014-0.009,0.021c-0.544,1.533,0.346,3.211,1.896,3.713
				c1.549,0.501,3.211-0.348,3.713-1.898c0.009-0.027,0.009-0.053,0.017-0.081c5.684,1.581,10.698,2.359,9.887,0.773
				c-1.898-3.718,1.523-17.607,1.523-17.607c0.58-1.786,0.534-3.62,0-5.28h18.104v31.55H304.44V267.091z M376.155,350.564v-4.284
				h16.933l-16.933-47.639h-9.625v-31.55h4.134l-39.249-39.249l-39.249,39.249h4.137v31.55H187.327l-16.93,47.639h16.93v4.284
				h-61.32l-11.979,33.7h11.979v82.105v9.732h61.32h4.559h55.867h30.949h6.079h30.951h55.893h4.53h61.352v-9.732v-82.105h11.976
				l-11.976-33.7H376.155z"/>
			<path id="XMLID_802_" class="st55" d="M303.662,266.313h19.457c-0.101,0.274-4.815,12.958-9.077,15.133
				c-1.87,0.956,2.761,3.245,8.439,5.226c0,0.007-0.006,0.014-0.009,0.021c-0.544,1.533,0.346,3.211,1.896,3.713
				c1.549,0.501,3.211-0.348,3.713-1.898c0.009-0.027,0.009-0.053,0.017-0.081c5.684,1.581,10.698,2.359,9.887,0.773
				c-1.898-3.718,1.523-17.607,1.523-17.607c0.58-1.786,0.534-3.62,0-5.28h18.104v31.55h-53.952V266.313z M375.378,349.787v-4.284
				h16.933l-16.933-47.639h-9.625v-31.55h4.134l-39.249-39.249l-39.249,39.249h4.137v31.55H186.549l-16.93,47.639h16.93v4.284
				h-61.32l-11.979,33.7h11.979v82.105v9.732h61.32h4.559h55.867h30.949h6.079h30.951h55.893h4.53h61.352v-9.732v-82.105h11.976
				l-11.976-33.7H375.378z"/>
			<path id="XMLID_799_" class="st56" d="M302.885,265.536h19.457c-0.101,0.274-4.815,12.958-9.077,15.133
				c-1.87,0.956,2.761,3.245,8.439,5.226c0,0.007-0.006,0.014-0.009,0.021c-0.544,1.533,0.346,3.211,1.896,3.713
				c1.549,0.501,3.211-0.348,3.713-1.898c0.009-0.027,0.009-0.053,0.017-0.081c5.684,1.581,10.698,2.359,9.887,0.773
				c-1.898-3.718,1.523-17.607,1.523-17.607c0.58-1.786,0.534-3.62,0-5.28h18.104v31.55h-53.952V265.536z M374.6,349.009v-4.284
				h16.933L374.6,297.086h-9.625v-31.55h4.134l-39.249-39.249l-39.249,39.249h4.137v31.55H185.772l-16.93,47.639h16.93v4.284h-61.32
				l-11.979,33.7h11.979v82.105v9.732h61.32h4.559h55.867h30.949h6.079h30.951h55.893h4.53h61.352v-9.732v-82.105h11.976
				l-11.976-33.7H374.6z"/>
			<path id="XMLID_796_" class="st57" d="M302.107,264.758h19.457c-0.101,0.274-4.815,12.958-9.077,15.133
				c-1.87,0.956,2.761,3.245,8.439,5.226c0,0.007-0.006,0.014-0.009,0.021c-0.544,1.533,0.346,3.211,1.895,3.713
				c1.549,0.501,3.211-0.348,3.713-1.898c0.009-0.027,0.009-0.053,0.017-0.081c5.684,1.581,10.698,2.359,9.887,0.773
				c-1.898-3.718,1.523-17.607,1.523-17.607c0.58-1.786,0.534-3.62,0-5.28h18.104v31.55h-53.952V264.758z M373.823,348.232v-4.284
				h16.933l-16.933-47.639h-9.625v-31.55h4.134l-39.249-39.249l-39.249,39.249h4.137v31.55H184.994l-16.93,47.639h16.93v4.284
				h-61.32l-11.979,33.7h11.979v82.105v9.732h61.32h4.559h55.867h30.949h6.079H313.4h55.893h4.53h61.352v-9.732v-82.105h11.976
				l-11.976-33.7H373.823z"/>
			<path id="XMLID_793_" class="st58" d="M301.33,263.981h19.457c-0.101,0.274-4.815,12.958-9.077,15.133
				c-1.87,0.956,2.761,3.245,8.439,5.226c0,0.007-0.006,0.014-0.009,0.021c-0.544,1.533,0.346,3.211,1.895,3.713
				c1.549,0.501,3.211-0.348,3.713-1.898c0.009-0.027,0.009-0.053,0.017-0.081c5.684,1.581,10.698,2.359,9.887,0.773
				c-1.898-3.718,1.523-17.607,1.523-17.607c0.58-1.786,0.534-3.62,0-5.28h18.104v31.55H301.33V263.981z M373.045,347.454v-4.284
				h16.933l-16.933-47.639h-9.625v-31.55h4.134l-39.249-39.249l-39.249,39.249h4.137v31.55H184.217l-16.93,47.639h16.93v4.284
				h-61.32l-11.979,33.7h11.979v82.105v9.732h61.32h4.559h55.867h30.949h6.079h30.951h55.893h4.53h61.352v-9.732v-82.105h11.976
				l-11.976-33.7H373.045z"/>
			<path id="XMLID_790_" class="st59" d="M300.552,263.203h19.457c-0.101,0.274-4.815,12.958-9.077,15.133
				c-1.87,0.956,2.761,3.245,8.439,5.226c0,0.007-0.006,0.013-0.009,0.021c-0.544,1.533,0.346,3.211,1.896,3.713
				c1.549,0.501,3.211-0.348,3.713-1.898c0.009-0.027,0.009-0.053,0.017-0.081c5.684,1.581,10.698,2.359,9.887,0.773
				c-1.898-3.718,1.523-17.607,1.523-17.607c0.58-1.786,0.534-3.62,0-5.28h18.104v31.55h-53.952V263.203z M372.268,346.677v-4.284
				h16.933l-16.933-47.639h-9.625v-31.55h4.134l-39.249-39.249l-39.249,39.249h4.137v31.55H183.439l-16.93,47.639h16.93v4.284
				h-61.32l-11.979,33.7h11.979v82.105v9.732h61.32h4.559h55.867h30.949h6.079h30.951h55.893h4.53h61.352v-9.732v-82.105h11.976
				l-11.976-33.7H372.268z"/>
			<path id="XMLID_787_" class="st60" d="M299.775,262.426h19.457c-0.101,0.274-4.815,12.958-9.077,15.133
				c-1.87,0.956,2.761,3.245,8.439,5.226c0,0.007-0.006,0.014-0.009,0.021c-0.544,1.533,0.346,3.211,1.896,3.713
				c1.549,0.501,3.211-0.348,3.713-1.898c0.009-0.027,0.009-0.053,0.017-0.081c5.684,1.581,10.698,2.359,9.887,0.773
				c-1.898-3.718,1.523-17.607,1.523-17.607c0.58-1.786,0.534-3.62,0-5.28h18.104v31.55h-53.952V262.426z M371.49,345.899v-4.284
				h16.933l-16.933-47.639h-9.625v-31.55H366l-39.249-39.249l-39.249,39.249h4.137v31.55H182.662l-16.93,47.639h16.93v4.284h-61.32
				l-11.979,33.7h11.979v82.105v9.732h61.32h4.559h55.867h30.949h6.079h30.952h55.893h4.53h61.352v-9.732v-82.105h11.976
				l-11.976-33.7H371.49z"/>
			<path id="XMLID_784_" class="st61" d="M298.998,261.648h19.457c-0.101,0.274-4.815,12.958-9.077,15.133
				c-1.87,0.956,2.761,3.245,8.439,5.226c0,0.007-0.006,0.014-0.009,0.021c-0.544,1.533,0.346,3.211,1.896,3.713
				c1.549,0.501,3.211-0.348,3.713-1.898c0.009-0.027,0.009-0.053,0.017-0.081c5.684,1.581,10.698,2.359,9.887,0.773
				c-1.898-3.718,1.523-17.607,1.523-17.607c0.58-1.786,0.534-3.62,0-5.28h18.104v31.55h-53.952V261.648z M370.713,345.122v-4.284
				h16.933l-16.933-47.639h-9.625v-31.55h4.134l-39.249-39.249l-39.249,39.249h4.137v31.55H181.885l-16.93,47.639h16.93v4.284
				h-61.32l-11.979,33.7h11.979v82.105v9.732h61.32h4.559h55.867h30.949h6.079h30.952h55.893h4.53h61.352v-9.732v-82.105h11.976
				l-11.976-33.7H370.713z"/>
			<path id="XMLID_781_" class="st62" d="M298.22,260.871h19.457c-0.101,0.274-4.815,12.958-9.077,15.133
				c-1.87,0.956,2.761,3.245,8.439,5.226c0,0.007-0.006,0.014-0.009,0.021c-0.544,1.533,0.346,3.211,1.896,3.713
				c1.549,0.501,3.211-0.348,3.713-1.898c0.009-0.027,0.009-0.053,0.017-0.081c5.684,1.581,10.698,2.359,9.887,0.773
				c-1.898-3.718,1.523-17.607,1.523-17.607c0.58-1.786,0.534-3.62,0-5.28h18.104v31.55H298.22V260.871z M369.935,344.345v-4.284
				h16.933l-16.933-47.639h-9.625v-31.55h4.134l-39.249-39.249l-39.249,39.249h4.137v31.55H181.107l-16.93,47.639h16.93v4.284
				h-61.32l-11.979,33.7h11.979v82.105v9.732h61.32h4.559h55.867h30.949h6.079h30.952h55.893h4.53h61.352v-9.732v-82.105h11.976
				l-11.976-33.7H369.935z"/>
			<path id="XMLID_778_" class="st63" d="M297.443,260.093H316.9c-0.101,0.274-4.815,12.958-9.077,15.133
				c-1.87,0.956,2.761,3.245,8.439,5.226c0,0.007-0.006,0.014-0.009,0.021c-0.544,1.533,0.346,3.211,1.896,3.713
				c1.549,0.501,3.211-0.348,3.713-1.898c0.009-0.027,0.009-0.053,0.017-0.081c5.684,1.581,10.698,2.359,9.887,0.773
				c-1.898-3.718,1.523-17.607,1.523-17.607c0.58-1.786,0.534-3.62,0-5.28h18.104v31.55h-53.952V260.093z M369.158,343.567v-4.284
				h16.933l-16.933-47.639h-9.625v-31.55h4.134l-39.249-39.249l-39.249,39.249h4.137v31.55H180.33l-16.93,47.639h16.93v4.284h-61.32
				l-11.979,33.7h11.979v82.105v9.732h61.32h4.559h55.867h30.949h6.079h30.952h55.893h4.53h61.352v-9.732v-82.105h11.976
				l-11.976-33.7H369.158z"/>
			<path id="XMLID_775_" class="st64" d="M296.665,259.316h19.457c-0.101,0.274-4.815,12.958-9.077,15.133
				c-1.87,0.956,2.761,3.245,8.439,5.226c0,0.007-0.006,0.014-0.009,0.021c-0.544,1.533,0.346,3.211,1.896,3.713
				c1.549,0.501,3.211-0.348,3.713-1.898c0.009-0.027,0.009-0.053,0.017-0.081c5.684,1.581,10.698,2.359,9.887,0.773
				c-1.898-3.718,1.523-17.607,1.523-17.607c0.58-1.786,0.534-3.62,0-5.28h18.104v31.55h-53.952V259.316z M368.38,342.79v-4.284
				h16.933l-16.933-47.639h-9.625v-31.55h4.134l-39.249-39.249l-39.249,39.249h4.137v31.55H179.552l-16.93,47.639h16.93v4.284
				h-61.32l-11.979,33.7h11.979v82.105v9.732h61.32h4.559h55.867h30.949h6.079h30.951h55.893h4.53h61.352v-9.732v-82.105h11.976
				l-11.976-33.7H368.38z"/>
			<path id="XMLID_772_" class="st65" d="M295.888,258.538h19.457c-0.101,0.274-4.815,12.958-9.077,15.133
				c-1.87,0.956,2.761,3.245,8.439,5.226c0,0.007-0.006,0.014-0.009,0.021c-0.544,1.533,0.346,3.211,1.896,3.713
				c1.549,0.501,3.211-0.348,3.713-1.898c0.009-0.027,0.009-0.053,0.017-0.081c5.684,1.581,10.698,2.359,9.887,0.773
				c-1.898-3.718,1.523-17.607,1.523-17.607c0.58-1.786,0.534-3.62,0-5.28h18.104v31.55h-53.952V258.538z M367.603,342.012v-4.284
				h16.933l-16.933-47.639h-9.625v-31.55h4.134l-39.249-39.249l-39.249,39.249h4.137v31.55H178.775l-16.93,47.639h16.93v4.284
				h-61.32l-11.979,33.7h11.979v82.105v9.732h61.32h4.559H239.2h30.949h6.079h30.951h55.893h4.53h61.352v-9.732v-82.105h11.976
				l-11.976-33.7H367.603z"/>
			<path id="XMLID_769_" class="st66" d="M295.11,257.761h19.457c-0.101,0.274-4.815,12.958-9.077,15.133
				c-1.87,0.956,2.761,3.245,8.439,5.226c0,0.007-0.006,0.014-0.009,0.021c-0.544,1.533,0.346,3.211,1.896,3.713
				c1.549,0.501,3.211-0.348,3.713-1.898c0.009-0.027,0.009-0.053,0.017-0.081c5.684,1.581,10.698,2.359,9.887,0.773
				c-1.898-3.718,1.523-17.607,1.523-17.607c0.58-1.786,0.534-3.62,0-5.28h18.104v31.55H295.11V257.761z M366.826,341.235v-4.284
				h16.933l-16.933-47.639h-9.625v-31.55h4.134l-39.249-39.249l-39.249,39.249h4.137v31.55H177.997l-16.93,47.639h16.93v4.284
				h-61.32l-11.979,33.7h11.979v82.105v9.732h61.32h4.559h55.867h30.949h6.079h30.951h55.893h4.53h61.352v-9.732v-82.105h11.976
				l-11.976-33.7H366.826z"/>
			<path id="XMLID_766_" class="st67" d="M294.333,256.984h19.457c-0.101,0.274-4.815,12.958-9.077,15.133
				c-1.87,0.956,2.761,3.245,8.439,5.226c0,0.007-0.006,0.014-0.009,0.021c-0.544,1.533,0.346,3.211,1.896,3.713
				c1.549,0.501,3.211-0.348,3.713-1.898c0.009-0.027,0.009-0.053,0.017-0.081c5.684,1.581,10.698,2.359,9.887,0.773
				c-1.898-3.718,1.523-17.607,1.523-17.607c0.58-1.786,0.534-3.62,0-5.28h18.104v31.55h-53.952V256.984z M366.048,340.457v-4.284
				h16.933l-16.933-47.639h-9.625v-31.55h4.134l-39.249-39.249l-39.249,39.249h4.137v31.55H177.22l-16.93,47.639h16.93v4.284H115.9
				l-11.979,33.7H115.9v82.105v9.732h61.32h4.559h55.867h30.949h6.079h30.951h55.893h4.53H427.4v-9.732v-82.105h11.976l-11.976-33.7
				H366.048z"/>
			<path id="XMLID_763_" class="st68" d="M293.555,256.206h19.457c-0.101,0.274-4.815,12.958-9.077,15.133
				c-1.87,0.956,2.761,3.245,8.439,5.226c0,0.007-0.006,0.014-0.009,0.021c-0.544,1.533,0.346,3.211,1.895,3.713
				c1.549,0.501,3.211-0.348,3.713-1.898c0.009-0.027,0.009-0.053,0.017-0.081c5.684,1.581,10.698,2.359,9.887,0.773
				c-1.898-3.718,1.523-17.607,1.523-17.607c0.58-1.786,0.534-3.62,0-5.28h18.104v31.55h-53.952V256.206z M365.271,339.68v-4.284
				h16.933l-16.933-47.639h-9.625v-31.55h4.134l-39.249-39.249l-39.249,39.249h4.137v31.55H176.442l-16.93,47.639h16.93v4.284
				h-61.32l-11.979,33.7h11.979v82.105v9.732h61.32h4.559h55.867h30.949h6.079h30.951h55.893h4.53h61.352v-9.732v-82.105h11.976
				l-11.976-33.7H365.271z"/>
			<path id="XMLID_760_" class="st69" d="M292.778,255.429h19.457c-0.101,0.274-4.815,12.958-9.077,15.133
				c-1.87,0.956,2.761,3.245,8.439,5.226c0,0.007-0.006,0.014-0.009,0.021c-0.544,1.533,0.346,3.211,1.895,3.713
				c1.549,0.501,3.211-0.348,3.713-1.898c0.009-0.027,0.009-0.053,0.017-0.081c5.684,1.581,10.698,2.359,9.887,0.773
				c-1.898-3.718,1.523-17.607,1.523-17.607c0.58-1.786,0.534-3.62,0-5.28h18.104v31.55h-53.952V255.429z M364.493,338.902v-4.284
				h16.933l-16.933-47.639h-9.625v-31.55h4.134l-39.249-39.249l-39.249,39.249h4.137v31.55H175.665l-16.93,47.639h16.93v4.284
				h-61.32l-11.979,33.7h11.979v82.105v9.732h61.32h4.559h55.867h30.949h6.079h30.951h55.893h4.53h61.352v-9.732v-82.105h11.976
				l-11.976-33.7H364.493z"/>
			<path id="XMLID_757_" class="st70" d="M292,254.651h19.457c-0.101,0.274-4.815,12.958-9.077,15.133
				c-1.87,0.956,2.761,3.245,8.439,5.226c0,0.007-0.006,0.014-0.009,0.021c-0.544,1.533,0.346,3.211,1.895,3.713
				c1.549,0.501,3.211-0.348,3.713-1.898c0.009-0.027,0.009-0.053,0.017-0.081c5.684,1.581,10.698,2.359,9.887,0.773
				c-1.898-3.718,1.523-17.607,1.523-17.607c0.58-1.786,0.534-3.62,0-5.28h18.104v31.55H292V254.651z M363.716,338.125v-4.284
				h16.933l-16.933-47.639h-9.625v-31.55h4.134l-39.249-39.249l-39.249,39.249h4.137v31.55H174.887l-16.93,47.639h16.93v4.284
				h-61.32l-11.979,33.7h11.979v82.105v9.732h61.32h4.559h55.867h30.949h6.079h30.951h55.893h4.53h61.352v-9.732v-82.105h11.976
				l-11.976-33.7H363.716z"/>
			<path id="XMLID_754_" class="st71" d="M291.223,253.874h19.457c-0.101,0.274-4.815,12.958-9.077,15.133
				c-1.87,0.956,2.761,3.245,8.439,5.226c0,0.007-0.006,0.014-0.009,0.021c-0.544,1.533,0.346,3.211,1.896,3.713
				c1.549,0.501,3.211-0.348,3.713-1.898c0.009-0.027,0.009-0.053,0.017-0.081c5.684,1.581,10.698,2.359,9.887,0.773
				c-1.898-3.718,1.523-17.607,1.523-17.607c0.58-1.786,0.534-3.62,0-5.28h18.104v31.55h-53.952V253.874z M362.938,337.347v-4.284
				h16.933l-16.933-47.639h-9.625v-31.55h4.134l-39.249-39.249l-39.249,39.249h4.137v31.55H174.11l-16.93,47.639h16.93v4.284h-61.32
				l-11.979,33.7h11.979v82.105v9.732h61.32h4.559h55.867h30.949h6.079h30.951h55.893h4.53h61.352v-9.732v-82.105h11.976
				l-11.976-33.7H362.938z"/>
			<path id="XMLID_751_" class="st72" d="M290.445,253.096h19.457c-0.101,0.274-4.815,12.958-9.077,15.133
				c-1.87,0.956,2.761,3.245,8.439,5.226c0,0.007-0.006,0.014-0.009,0.021c-0.544,1.533,0.346,3.211,1.896,3.713
				c1.549,0.501,3.211-0.348,3.713-1.898c0.009-0.027,0.009-0.053,0.017-0.081c5.684,1.581,10.698,2.359,9.887,0.773
				c-1.898-3.718,1.523-17.607,1.523-17.607c0.58-1.786,0.534-3.62,0-5.28h18.104v31.55h-53.952V253.096z M362.161,336.57v-4.284
				h16.933l-16.933-47.639h-9.625v-31.55h4.134l-39.249-39.249l-39.249,39.249h4.137v31.55H173.333l-16.93,47.639h16.93v4.284
				h-61.32l-11.979,33.7h11.979v82.105v9.732h61.32h4.559h55.867h30.949h6.079h30.952h55.893h4.53h61.352v-9.732V370.27h11.976
				l-11.976-33.7H362.161z"/>
			<path id="XMLID_748_" class="st73" d="M289.668,252.319h19.457c-0.101,0.274-4.815,12.958-9.077,15.133
				c-1.87,0.956,2.761,3.245,8.439,5.226c0,0.007-0.006,0.014-0.009,0.021c-0.544,1.533,0.346,3.211,1.896,3.713
				c1.549,0.501,3.211-0.348,3.713-1.898c0.009-0.027,0.009-0.053,0.017-0.081c5.684,1.581,10.698,2.359,9.887,0.773
				c-1.898-3.718,1.523-17.607,1.523-17.607c0.58-1.786,0.534-3.62,0-5.28h18.104v31.55h-53.952V252.319z M361.383,335.792v-4.284
				h16.933l-16.933-47.639h-9.625v-31.55h4.134l-39.249-39.249l-39.249,39.249h4.137v31.55H172.555l-16.93,47.639h16.93v4.284
				h-61.32l-11.979,33.7h11.979v82.105v9.732h61.32h4.559h55.867h30.949h6.079h30.952h55.893h4.53h61.352v-9.732v-82.105h11.976
				l-11.976-33.7H361.383z"/>
			<path id="XMLID_745_" class="st74" d="M288.891,251.541h19.457c-0.101,0.274-4.815,12.958-9.077,15.133
				c-1.87,0.956,2.761,3.245,8.439,5.226c0,0.007-0.006,0.014-0.009,0.021c-0.544,1.533,0.346,3.211,1.896,3.713
				c1.549,0.501,3.211-0.348,3.713-1.898c0.009-0.027,0.009-0.053,0.017-0.081c5.684,1.581,10.698,2.359,9.887,0.773
				c-1.898-3.718,1.523-17.607,1.523-17.607c0.58-1.786,0.534-3.62,0-5.28h18.104v31.55h-53.952V251.541z M360.606,335.015v-4.284
				h16.933l-16.933-47.639h-9.625v-31.55h4.134l-39.249-39.249l-39.249,39.249h4.137v31.55H171.778l-16.93,47.639h16.93v4.284
				h-61.32l-11.979,33.7h11.979v82.105v9.732h61.32h4.559h55.867h30.949h6.079h30.952h55.893h4.53h61.352v-9.732v-82.105h11.976
				l-11.976-33.7H360.606z"/>
			<path id="XMLID_742_" class="st75" d="M288.113,250.764h19.457c-0.101,0.274-4.815,12.958-9.077,15.133
				c-1.87,0.956,2.761,3.245,8.439,5.226c0,0.007-0.006,0.014-0.009,0.021c-0.544,1.533,0.346,3.211,1.896,3.713
				c1.549,0.501,3.211-0.348,3.713-1.898c0.009-0.027,0.009-0.053,0.017-0.081c5.684,1.581,10.698,2.359,9.887,0.773
				c-1.898-3.718,1.523-17.607,1.523-17.607c0.58-1.786,0.534-3.62,0-5.28h18.104v31.55h-53.952V250.764z M359.828,334.238v-4.284
				h16.933l-16.933-47.639h-9.625v-31.55h4.134l-39.249-39.249l-39.249,39.249h4.137v31.55H171l-16.93,47.639H171v4.284h-61.32
				l-11.979,33.7h11.979v82.105v9.732H171h4.559h55.867h30.949h6.079h30.951h55.893h4.53h61.352v-9.732v-82.105h11.976l-11.976-33.7
				H359.828z"/>
			<path id="XMLID_739_" class="st76" d="M287.336,249.986h19.457c-0.101,0.274-4.815,12.958-9.077,15.133
				c-1.87,0.956,2.761,3.245,8.439,5.226c0,0.007-0.006,0.014-0.009,0.021c-0.544,1.533,0.346,3.211,1.896,3.713
				c1.549,0.501,3.211-0.348,3.713-1.898c0.009-0.027,0.009-0.053,0.017-0.081c5.684,1.581,10.698,2.359,9.887,0.773
				c-1.898-3.718,1.523-17.607,1.523-17.607c0.58-1.786,0.534-3.62,0-5.28h18.104v31.55h-53.952V249.986z M359.051,333.46v-4.284
				h16.933l-16.933-47.639h-9.625v-31.55h4.134l-39.249-39.249l-39.249,39.249h4.137v31.55H170.223l-16.93,47.639h16.93v4.284
				h-61.32l-11.979,33.7h11.979v82.105v9.732h61.32h4.559h55.867h30.949h6.079h30.951h55.893h4.53h61.352v-9.732V367.16h11.976
				l-11.976-33.7H359.051z"/>
			<path id="XMLID_736_" class="st77" d="M286.558,249.209h19.457c-0.101,0.274-4.815,12.958-9.077,15.133
				c-1.87,0.956,2.761,3.245,8.439,5.226c0,0.007-0.006,0.014-0.009,0.021c-0.544,1.533,0.346,3.211,1.896,3.713
				c1.549,0.501,3.211-0.348,3.713-1.898c0.009-0.027,0.009-0.053,0.017-0.081c5.684,1.581,10.698,2.359,9.887,0.773
				c-1.898-3.718,1.523-17.607,1.523-17.607c0.58-1.786,0.534-3.62,0-5.28h18.104v31.55h-53.952V249.209z M358.273,332.683v-4.284
				h16.933l-16.933-47.639h-9.625v-31.55h4.134l-39.249-39.249l-39.249,39.249h4.137v31.55H169.445l-16.93,47.639h16.93v4.284
				h-61.32l-11.979,33.7h11.979v82.105v9.732h61.32h4.559h55.867h30.949h6.079h30.951h55.893h4.53h61.352v-9.732v-82.105h11.976
				l-11.976-33.7H358.273z"/>
			<path id="XMLID_733_" class="st78" d="M285.781,248.431h19.457c-0.101,0.274-4.815,12.958-9.077,15.133
				c-1.87,0.956,2.761,3.245,8.439,5.226c0,0.007-0.006,0.014-0.009,0.021c-0.544,1.533,0.346,3.211,1.896,3.713
				c1.549,0.501,3.211-0.348,3.713-1.898c0.009-0.027,0.009-0.053,0.017-0.081c5.684,1.581,10.698,2.359,9.887,0.773
				c-1.898-3.718,1.523-17.607,1.523-17.607c0.58-1.786,0.534-3.62,0-5.28h18.104v31.55h-53.952V248.431z M357.496,331.905v-4.284
				h16.933l-16.933-47.639h-9.625v-31.55h4.134l-39.249-39.249l-39.249,39.249h4.137v31.55H168.668l-16.93,47.639h16.93v4.284
				h-61.32l-11.979,33.7h11.979v82.105v9.732h61.32h4.559h55.867h30.949h6.079h30.951h55.893h4.53h61.352v-9.732v-82.105h11.976
				l-11.976-33.7H357.496z"/>
			<path id="XMLID_730_" class="st79" d="M285.003,247.654h19.457c-0.101,0.274-4.815,12.958-9.077,15.133
				c-1.87,0.956,2.761,3.245,8.439,5.226c0,0.007-0.006,0.014-0.009,0.021c-0.544,1.533,0.346,3.211,1.896,3.713
				c1.549,0.501,3.211-0.348,3.713-1.898c0.009-0.027,0.009-0.053,0.017-0.081c5.684,1.581,10.698,2.359,9.887,0.773
				c-1.898-3.718,1.523-17.607,1.523-17.607c0.58-1.786,0.534-3.62,0-5.28h18.104v31.55h-53.952V247.654z M356.719,331.128v-4.284
				h16.933l-16.933-47.639h-9.625v-31.55h4.134l-39.249-39.249l-39.249,39.249h4.137v31.55H167.89l-16.93,47.639h16.93v4.284h-61.32
				l-11.979,33.7h11.979v82.105v9.732h61.32h4.559h55.867h30.949h6.079h30.951h55.893h4.53h61.352v-9.732v-82.105h11.976
				l-11.976-33.7H356.719z"/>
			<path id="XMLID_727_" class="st80" d="M284.226,246.877h19.457c-0.101,0.274-4.815,12.958-9.077,15.133
				c-1.87,0.956,2.761,3.245,8.439,5.226c0,0.007-0.006,0.014-0.009,0.021c-0.544,1.533,0.346,3.211,1.895,3.713
				c1.549,0.501,3.211-0.348,3.713-1.898c0.009-0.027,0.009-0.053,0.017-0.081c5.684,1.581,10.698,2.359,9.887,0.773
				c-1.898-3.718,1.523-17.607,1.523-17.607c0.58-1.786,0.534-3.62,0-5.28h18.104v31.55h-53.952V246.877z M355.941,330.35v-4.284
				h16.933l-16.933-47.639h-9.625v-31.55h4.134l-39.249-39.249l-39.249,39.249h4.137v31.55H167.113l-16.93,47.639h16.93v4.284
				h-61.32l-11.979,33.7h11.979v82.105v9.732h61.32h4.559h55.867h30.949h6.079h30.951h55.893h4.53h61.352v-9.732V364.05h11.976
				l-11.976-33.7H355.941z"/>
			<path id="XMLID_724_" class="st81" d="M283.448,246.099h19.457c-0.101,0.274-4.815,12.958-9.077,15.133
				c-1.87,0.956,2.761,3.245,8.439,5.226c0,0.007-0.006,0.014-0.009,0.021c-0.544,1.533,0.346,3.211,1.895,3.713
				c1.549,0.501,3.211-0.348,3.713-1.898c0.009-0.027,0.009-0.053,0.017-0.081c5.684,1.581,10.698,2.359,9.887,0.773
				c-1.898-3.718,1.523-17.607,1.523-17.607c0.58-1.786,0.534-3.62,0-5.28H337.4v31.55h-53.952V246.099z M355.164,329.573v-4.284
				h16.933l-16.933-47.639h-9.625v-31.55h4.134l-39.249-39.249l-39.249,39.249h4.137v31.55H166.335l-16.93,47.639h16.93v4.284
				h-61.32l-11.979,33.7h11.979v82.105v9.732h61.32h4.559h55.867h30.949h6.079h30.951h55.893h4.53h61.352v-9.732v-82.105h11.976
				l-11.976-33.7H355.164z"/>
			<path id="XMLID_721_" class="st82" d="M282.671,245.322h19.457c-0.101,0.274-4.815,12.958-9.077,15.133
				c-1.87,0.956,2.761,3.245,8.439,5.226c0,0.007-0.006,0.013-0.009,0.021c-0.544,1.533,0.346,3.211,1.895,3.713
				c1.549,0.501,3.211-0.348,3.713-1.898c0.009-0.027,0.009-0.053,0.017-0.081c5.684,1.581,10.698,2.359,9.887,0.773
				c-1.898-3.718,1.523-17.607,1.523-17.607c0.58-1.786,0.534-3.62,0-5.28h18.104v31.55h-53.952V245.322z M354.386,328.795v-4.284
				h16.933l-16.933-47.639h-9.625v-31.55h4.134l-39.249-39.249l-39.249,39.249h4.137v31.55H165.558l-16.93,47.639h16.93v4.284
				h-61.32l-11.979,33.7h11.979V444.6v9.732h61.32h4.559h55.867h30.949h6.079h30.951h55.893h4.53h61.352V444.6v-82.105h11.976
				l-11.976-33.7H354.386z"/>
			<path id="XMLID_718_" class="st83" d="M281.893,244.544h19.457c-0.101,0.274-4.815,12.958-9.077,15.133
				c-1.87,0.956,2.761,3.245,8.439,5.226c0,0.007-0.006,0.014-0.009,0.021c-0.544,1.533,0.346,3.211,1.896,3.713
				c1.549,0.501,3.211-0.348,3.713-1.898c0.009-0.027,0.009-0.053,0.017-0.081c5.684,1.581,10.698,2.359,9.887,0.773
				c-1.898-3.718,1.523-17.607,1.523-17.607c0.58-1.786,0.534-3.62,0-5.28h18.104v31.55h-53.952V244.544z M353.609,328.018v-4.284
				h16.933l-16.933-47.639h-9.625v-31.55h4.134l-39.249-39.249l-39.249,39.249h4.137v31.55H164.781l-16.93,47.639h16.93v4.284
				h-61.32l-11.979,33.7h11.979v82.105v9.732h61.32h4.559h55.867h30.949h6.079h30.952h55.893h4.53h61.352v-9.732v-82.105h11.976
				l-11.976-33.7H353.609z"/>
			<path id="XMLID_715_" d="M281.116,243.767h19.457c-0.101,0.274-4.815,12.958-9.077,15.133c-1.87,0.956,2.761,3.245,8.439,5.226
				c0,0.007-0.006,0.014-0.009,0.021c-0.502,1.547,0.346,3.211,1.896,3.713c1.549,0.501,3.211-0.348,3.713-1.898
				c0.009-0.027,0.009-0.053,0.017-0.081c5.684,1.581,10.698,2.359,9.887,0.773c-1.898-3.718,1.523-17.607,1.523-17.607
				c0.58-1.786,0.534-3.62,0-5.28h18.104v31.55h-53.952V243.767z M352.831,327.24v-4.284h16.933l-16.933-47.639h-9.625v-31.55h4.134
				l-39.249-39.249l-39.249,39.249h4.137v31.55H164.003l-16.93,47.639h16.93v4.284h-61.32l-11.979,33.7h11.979v82.105v9.732h61.32
				h4.559h55.867h30.949h6.079h30.952h55.893h4.53h61.352v-9.732V360.94h11.976l-11.976-33.7H352.831z"/>
		</g>
	</g>
	<g id="XMLID_702_" class="st6">
		<g id="XMLID_703_">
			<path id="XMLID_996_" class="st8" d="M130.286,215.361v-1.791c-1.027-0.018-2.092-0.337-2.713-0.78l0.426-1.188
				c0.639,0.425,1.561,0.762,2.554,0.762c1.259,0,2.11-0.727,2.11-1.738c0-0.975-0.691-1.578-2.004-2.11
				c-1.809-0.709-2.926-1.525-2.926-3.067c0-1.472,1.047-2.588,2.678-2.854v-1.791h1.1v1.72c1.062,0.035,1.79,0.319,2.305,0.621
				l-0.443,1.17c-0.373-0.213-1.1-0.603-2.234-0.603c-1.365,0-1.879,0.815-1.879,1.524c0,0.922,0.656,1.383,2.198,2.021
				c1.826,0.745,2.748,1.667,2.748,3.245c0,1.401-0.976,2.713-2.802,3.014v1.844H130.286z"/>
		</g>
	</g>
	<g id="XMLID_544_">
		<g id="XMLID_699_">
			<circle id="XMLID_701_" class="st84" cx="302.73" cy="265.054" r="2.948"/>
			<path id="XMLID_700_" class="st85" d="M315.439,266.654c-1.898-3.718,1.525-17.607,1.525-17.607
				c1.466-4.523-1.014-9.378-5.538-10.844c-4.524-1.465-9.38,1.014-10.845,5.538c0,0-4.778,12.959-9.085,15.159
				C287.188,261.101,317.337,270.375,315.439,266.654z"/>
		</g>
		<g id="XMLID_696_">
			<rect id="XMLID_698_" x="272.978" y="241.048" class="st86" width="8.137" height="37.545"/>
			<rect id="XMLID_697_" x="335.068" y="241.048" class="st86" width="8.137" height="37.545"/>
		</g>
		<polygon id="XMLID_695_" class="st87" points="308.092,204.518 268.843,243.767 347.341,243.767 		"/>
		<polygon id="XMLID_694_" class="st87" points="352.831,275.317 164.002,275.317 147.072,322.956 369.763,322.956 		"/>
		<g id="XMLID_654_">
			<polygon id="XMLID_693_" class="st87" points="168.56,327.24 102.681,327.24 90.702,360.94 168.56,360.94 			"/>
			<rect id="XMLID_692_" x="102.681" y="360.94" class="st86" width="65.879" height="91.836"/>
			<rect id="XMLID_691_" x="102.681" y="443.045" class="st88" width="65.879" height="9.732"/>
			<g id="XMLID_672_">
				<g id="XMLID_681_">
					<g id="XMLID_684_">
						<rect id="XMLID_690_" x="111.806" y="367.457" class="st89" width="24.86" height="26.05"/>
						<polygon id="XMLID_689_" class="st90" points="136.665,393.507 111.806,393.507 136.665,367.457 						"/>
						<rect id="XMLID_688_" x="111.806" y="366.713" class="st91" width="24.86" height="0.744"/>
						<rect id="XMLID_687_" x="111.806" y="393.507" class="st91" width="24.86" height="0.744"/>
					</g>
					<path id="XMLID_683_" class="st92" d="M137.724,396.889c0,0.358-0.29,0.649-0.648,0.649h-25.682
						c-0.358,0-0.649-0.291-0.649-0.649v-1.988c0-0.358,0.291-0.649,0.649-0.649h25.682c0.358,0,0.648,0.291,0.648,0.649V396.889z"
						/>
					<rect id="XMLID_682_" x="111.806" y="365.602" class="st88" width="24.86" height="1.111"/>
				</g>
				<g id="XMLID_673_">
					<g id="XMLID_676_">
						<rect id="XMLID_680_" x="143.551" y="367.457" class="st89" width="24.86" height="26.05"/>
						<polygon id="XMLID_679_" class="st90" points="168.41,393.507 143.551,393.507 168.41,367.457 						"/>
						<rect id="XMLID_678_" x="143.551" y="366.713" class="st91" width="24.86" height="0.744"/>
						<rect id="XMLID_677_" x="143.551" y="393.507" class="st91" width="24.86" height="0.744"/>
					</g>
					<path id="XMLID_675_" class="st92" d="M169.469,396.889c0,0.358-0.29,0.649-0.649,0.649h-25.68
						c-0.359,0-0.649-0.291-0.649-0.649v-1.988c0-0.358,0.29-0.649,0.649-0.649h25.68c0.359,0,0.649,0.291,0.649,0.649V396.889z"/>
					<rect id="XMLID_674_" x="143.551" y="365.602" class="st88" width="24.86" height="1.111"/>
				</g>
			</g>
			<g id="XMLID_655_">
				<g id="XMLID_664_">
					<g id="XMLID_667_">
						<rect id="XMLID_671_" x="111.806" y="404.326" class="st89" width="24.86" height="26.05"/>
						<polygon id="XMLID_670_" class="st90" points="136.665,430.376 111.806,430.376 136.665,404.326 						"/>
						<rect id="XMLID_669_" x="111.806" y="403.582" class="st91" width="24.86" height="0.744"/>
						<rect id="XMLID_668_" x="111.806" y="430.376" class="st91" width="24.86" height="0.744"/>
					</g>
					<path id="XMLID_666_" class="st92" d="M137.724,433.757c0,0.358-0.29,0.649-0.648,0.649h-25.682
						c-0.358,0-0.649-0.291-0.649-0.649v-1.988c0-0.358,0.291-0.649,0.649-0.649h25.682c0.358,0,0.648,0.291,0.648,0.649V433.757z"
						/>
					<rect id="XMLID_665_" x="111.806" y="402.471" class="st88" width="24.86" height="1.111"/>
				</g>
				<g id="XMLID_656_">
					<g id="XMLID_659_">
						<rect id="XMLID_663_" x="143.551" y="404.326" class="st89" width="24.86" height="26.05"/>
						<polygon id="XMLID_662_" class="st90" points="168.41,430.376 143.551,430.376 168.41,404.326 						"/>
						<rect id="XMLID_661_" x="143.551" y="403.582" class="st91" width="24.86" height="0.744"/>
						<rect id="XMLID_660_" x="143.551" y="430.376" class="st91" width="24.86" height="0.744"/>
					</g>
					<path id="XMLID_658_" class="st92" d="M169.469,433.757c0,0.358-0.29,0.649-0.649,0.649h-25.68
						c-0.359,0-0.649-0.291-0.649-0.649v-1.988c0-0.358,0.29-0.649,0.649-0.649h25.68c0.359,0,0.649,0.291,0.649,0.649V433.757z"/>
					<rect id="XMLID_657_" x="143.551" y="402.471" class="st88" width="24.86" height="1.111"/>
				</g>
			</g>
		</g>
		<g id="XMLID_616_">
			<polygon id="XMLID_653_" class="st87" points="348.302,327.24 414.182,327.24 426.158,360.94 348.302,360.94 			"/>
			<rect id="XMLID_652_" x="348.302" y="360.94" class="st86" width="65.88" height="91.836"/>
			<rect id="XMLID_651_" x="348.302" y="443.045" class="st88" width="65.88" height="9.732"/>
			<g id="XMLID_634_">
				<g id="XMLID_643_">
					<g id="XMLID_646_">
						<rect id="XMLID_650_" x="380.197" y="367.457" class="st89" width="24.86" height="26.05"/>
						<polygon id="XMLID_649_" class="st90" points="380.197,393.507 405.056,393.507 380.197,367.457 						"/>
						<rect id="XMLID_648_" x="380.197" y="366.713" class="st91" width="24.86" height="0.744"/>
						<rect id="XMLID_647_" x="380.197" y="393.507" class="st91" width="24.86" height="0.744"/>
					</g>
					<path id="XMLID_645_" class="st92" d="M379.136,396.889c0,0.358,0.291,0.649,0.649,0.649h25.683
						c0.358,0,0.649-0.291,0.649-0.649v-1.988c0-0.358-0.291-0.649-0.649-0.649h-25.683c-0.358,0-0.649,0.291-0.649,0.649V396.889z"
						/>
					<rect id="XMLID_644_" x="380.197" y="365.602" class="st88" width="24.86" height="1.111"/>
				</g>
				<g id="XMLID_635_">
					<g id="XMLID_638_">
						<rect id="XMLID_642_" x="348.453" y="367.457" class="st89" width="24.858" height="26.05"/>
						<polygon id="XMLID_641_" class="st90" points="348.453,393.507 373.311,393.507 348.453,367.457 						"/>
						<rect id="XMLID_640_" x="348.453" y="366.713" class="st91" width="24.858" height="0.744"/>
						<rect id="XMLID_639_" x="348.453" y="393.507" class="st91" width="24.858" height="0.744"/>
					</g>
					<path id="XMLID_637_" class="st92" d="M347.391,396.889c0,0.358,0.291,0.649,0.649,0.649h25.683
						c0.358,0,0.649-0.291,0.649-0.649v-1.988c0-0.358-0.291-0.649-0.649-0.649H348.04c-0.358,0-0.649,0.291-0.649,0.649V396.889z"
						/>
					<rect id="XMLID_636_" x="348.453" y="365.602" class="st88" width="24.858" height="1.111"/>
				</g>
			</g>
			<g id="XMLID_617_">
				<g id="XMLID_626_">
					<g id="XMLID_629_">
						<rect id="XMLID_633_" x="380.197" y="404.326" class="st89" width="24.86" height="26.05"/>
						<polygon id="XMLID_632_" class="st90" points="380.197,430.376 405.056,430.376 380.197,404.326 						"/>
						<rect id="XMLID_631_" x="380.197" y="403.582" class="st91" width="24.86" height="0.744"/>
						<rect id="XMLID_630_" x="380.197" y="430.376" class="st91" width="24.86" height="0.744"/>
					</g>
					<path id="XMLID_628_" class="st92" d="M379.136,433.757c0,0.358,0.291,0.649,0.649,0.649h25.683
						c0.358,0,0.649-0.291,0.649-0.649v-1.988c0-0.358-0.291-0.649-0.649-0.649h-25.683c-0.358,0-0.649,0.291-0.649,0.649V433.757z"
						/>
					<rect id="XMLID_627_" x="380.197" y="402.471" class="st88" width="24.86" height="1.111"/>
				</g>
				<g id="XMLID_618_">
					<g id="XMLID_621_">
						<rect id="XMLID_625_" x="348.453" y="404.326" class="st89" width="24.858" height="26.05"/>
						<polygon id="XMLID_624_" class="st90" points="348.453,430.376 373.311,430.376 348.453,404.326 						"/>
						<rect id="XMLID_623_" x="348.453" y="403.582" class="st91" width="24.858" height="0.744"/>
						<rect id="XMLID_622_" x="348.453" y="430.376" class="st91" width="24.858" height="0.744"/>
					</g>
					<path id="XMLID_620_" class="st92" d="M347.391,433.757c0,0.358,0.291,0.649,0.649,0.649h25.683
						c0.358,0,0.649-0.291,0.649-0.649v-1.988c0-0.358-0.291-0.649-0.649-0.649H348.04c-0.358,0-0.649,0.291-0.649,0.649V433.757z"
						/>
					<rect id="XMLID_619_" x="348.453" y="402.471" class="st88" width="24.858" height="1.111"/>
				</g>
			</g>
		</g>
		<polygon id="XMLID_615_" class="st93" points="283.156,322.956 283.156,298.91 258.417,278.593 233.677,298.91 233.677,322.956 
			164.002,322.956 164.002,452.776 352.831,452.776 352.831,322.956 		"/>
		<g id="XMLID_613_">
			<polygon id="XMLID_614_" class="st92" points="284.075,302.58 258.432,281.868 233.242,302.565 230.018,298.64 258.403,275.317 
				287.266,298.627 			"/>
		</g>
		<rect id="XMLID_612_" x="164.002" y="439.017" class="st86" width="188.829" height="13.759"/>
		<g id="XMLID_552_">
			<g id="XMLID_579_">
				<g id="XMLID_604_">
					<g id="XMLID_607_">
						<rect id="XMLID_611_" x="171.012" y="336.388" class="st89" width="36.187" height="37.919"/>
						<polygon id="XMLID_610_" class="st90" points="207.199,374.307 171.012,374.307 207.199,336.388 						"/>
						<rect id="XMLID_609_" x="171.012" y="335.303" class="st91" width="36.187" height="1.085"/>
						<rect id="XMLID_608_" x="171.012" y="374.307" class="st91" width="36.187" height="1.082"/>
					</g>
					<path id="XMLID_606_" class="st92" d="M208.741,379.226c0,0.522-0.423,0.943-0.943,0.943h-37.384
						c-0.521,0-0.945-0.421-0.945-0.943v-2.891c0-0.522,0.424-0.946,0.945-0.946h37.384c0.521,0,0.943,0.424,0.943,0.946V379.226z"
						/>
					<rect id="XMLID_605_" x="171.012" y="333.687" class="st88" width="36.187" height="1.616"/>
				</g>
				<g id="XMLID_596_">
					<g id="XMLID_599_">
						<rect id="XMLID_603_" x="217.221" y="336.388" class="st89" width="36.185" height="37.919"/>
						<polygon id="XMLID_602_" class="st90" points="253.406,374.307 217.221,374.307 253.406,336.388 						"/>
						<rect id="XMLID_601_" x="217.221" y="335.303" class="st91" width="36.185" height="1.085"/>
						<rect id="XMLID_600_" x="217.221" y="374.307" class="st91" width="36.185" height="1.082"/>
					</g>
					<path id="XMLID_598_" class="st92" d="M254.949,379.226c0,0.522-0.423,0.943-0.943,0.943H216.62
						c-0.519,0-0.943-0.421-0.943-0.943v-2.891c0-0.522,0.424-0.946,0.943-0.946h37.385c0.521,0,0.943,0.424,0.943,0.946V379.226z"
						/>
					<rect id="XMLID_597_" x="217.221" y="333.687" class="st88" width="36.185" height="1.616"/>
				</g>
				<g id="XMLID_588_">
					<g id="XMLID_591_">
						<rect id="XMLID_595_" x="263.429" y="336.388" class="st89" width="36.185" height="37.919"/>
						<polygon id="XMLID_594_" class="st90" points="299.614,374.307 263.429,374.307 299.614,336.388 						"/>
						<rect id="XMLID_593_" x="263.429" y="335.303" class="st91" width="36.185" height="1.085"/>
						<rect id="XMLID_592_" x="263.429" y="374.307" class="st91" width="36.185" height="1.082"/>
					</g>
					<path id="XMLID_590_" class="st92" d="M301.157,379.226c0,0.522-0.424,0.943-0.945,0.943h-37.384
						c-0.521,0-0.943-0.421-0.943-0.943v-2.891c0-0.522,0.423-0.946,0.943-0.946h37.384c0.521,0,0.945,0.424,0.945,0.946V379.226z"
						/>
					<rect id="XMLID_589_" x="263.429" y="333.687" class="st88" width="36.185" height="1.616"/>
				</g>
				<g id="XMLID_580_">
					<g id="XMLID_583_">
						<rect id="XMLID_587_" x="309.635" y="336.388" class="st89" width="36.185" height="37.919"/>
						<polygon id="XMLID_586_" class="st90" points="345.82,374.307 309.635,374.307 345.82,336.388 						"/>
						<rect id="XMLID_585_" x="309.635" y="335.303" class="st91" width="36.185" height="1.085"/>
						<rect id="XMLID_584_" x="309.635" y="374.307" class="st91" width="36.185" height="1.082"/>
					</g>
					<path id="XMLID_582_" class="st92" d="M347.364,379.226c0,0.522-0.423,0.943-0.945,0.943h-37.383
						c-0.522,0-0.945-0.421-0.945-0.943v-2.891c0-0.522,0.423-0.946,0.945-0.946h37.383c0.522,0,0.945,0.424,0.945,0.946V379.226z"
						/>
					<rect id="XMLID_581_" x="309.635" y="333.687" class="st88" width="36.185" height="1.616"/>
				</g>
			</g>
			<g id="XMLID_571_">
				<g id="XMLID_574_">
					<rect id="XMLID_578_" x="171.012" y="388.594" class="st89" width="36.187" height="37.916"/>
					<polygon id="XMLID_577_" class="st90" points="207.199,426.51 171.012,426.51 207.199,388.594 					"/>
					<rect id="XMLID_576_" x="171.012" y="387.509" class="st91" width="36.187" height="1.085"/>
					<rect id="XMLID_575_" x="171.012" y="426.51" class="st91" width="36.187" height="1.085"/>
				</g>
				<path id="XMLID_573_" class="st92" d="M208.741,431.432c0,0.522-0.423,0.943-0.943,0.943h-37.384
					c-0.521,0-0.945-0.421-0.945-0.943v-2.894c0-0.519,0.424-0.943,0.945-0.943h37.384c0.521,0,0.943,0.424,0.943,0.943V431.432z"/>
				<rect id="XMLID_572_" x="171.012" y="385.893" class="st88" width="36.187" height="1.616"/>
			</g>
			<g id="XMLID_563_">
				<g id="XMLID_566_">
					<rect id="XMLID_570_" x="309.635" y="388.594" class="st89" width="36.185" height="37.916"/>
					<polygon id="XMLID_569_" class="st90" points="345.82,426.51 309.635,426.51 345.82,388.594 					"/>
					<rect id="XMLID_568_" x="309.635" y="387.509" class="st91" width="36.185" height="1.085"/>
					<rect id="XMLID_567_" x="309.635" y="426.51" class="st91" width="36.185" height="1.085"/>
				</g>
				<path id="XMLID_565_" class="st92" d="M347.364,431.432c0,0.522-0.423,0.943-0.945,0.943h-37.383
					c-0.522,0-0.945-0.421-0.945-0.943v-2.894c0-0.519,0.423-0.943,0.945-0.943h37.383c0.522,0,0.945,0.424,0.945,0.943V431.432z"/>
				<rect id="XMLID_564_" x="309.635" y="385.893" class="st88" width="36.185" height="1.616"/>
			</g>
			<g id="XMLID_553_">
				<path id="XMLID_562_" class="st92" d="M258.417,450.416c0,0.513,0.418,0.929,0.935,0.929h29.082
					c0.516,0,0.935-0.416,0.935-0.929v-62.78c0-0.516-0.418-0.935-0.935-0.935h-29.082c-0.516,0-0.935,0.418-0.935,0.935V450.416z"
					/>
				<path id="XMLID_561_" class="st91" d="M259.097,449.415c0,0.491,0.4,0.891,0.89,0.891h27.81c0.493,0,0.892-0.401,0.892-0.891
					v-60.778c0-0.493-0.398-0.894-0.892-0.894h-27.81c-0.491,0-0.89,0.401-0.89,0.894V449.415z"/>
				<path id="XMLID_560_" class="st88" d="M261.625,447.632v-56.32c0-0.49,0.398-0.891,0.89-0.891h22.752
					c0.493,0,0.893,0.401,0.893,0.891v56.32H261.625z"/>
				<circle id="XMLID_559_" class="st94" cx="265.491" cy="419.026" r="1.859"/>
				<path id="XMLID_558_" class="st92" d="M258.417,450.416c0,0.513-0.418,0.929-0.935,0.929h-29.083
					c-0.515,0-0.933-0.416-0.933-0.929v-62.78c0-0.516,0.418-0.935,0.933-0.935h29.083c0.516,0,0.935,0.418,0.935,0.935V450.416z"/>
				<path id="XMLID_557_" class="st91" d="M257.736,449.415c0,0.491-0.398,0.891-0.89,0.891h-27.81
					c-0.492,0-0.891-0.401-0.891-0.891v-60.778c0-0.493,0.4-0.894,0.891-0.894h27.81c0.492,0,0.89,0.401,0.89,0.894V449.415z"/>
				<path id="XMLID_556_" class="st88" d="M255.209,447.632v-56.32c0-0.49-0.398-0.891-0.891-0.891h-22.752
					c-0.493,0-0.891,0.401-0.891,0.891v56.32H255.209z"/>
				<circle id="XMLID_555_" class="st94" cx="251.343" cy="419.026" r="1.858"/>
				<path id="XMLID_554_" class="st92" d="M291.515,447.632h-30.952h-4.293h-30.951c-0.493,0-0.891,0.597-0.891,1.342v3.803h30.95
					h6.077h30.951v-3.803C292.407,448.229,292.009,447.632,291.515,447.632z"/>
			</g>
		</g>
		<g id="XMLID_545_">
			<circle id="XMLID_551_" class="st92" cx="257.738" cy="309.493" r="16.155"/>
			<circle id="XMLID_550_" class="st12" cx="257.737" cy="309.493" r="14.322"/>
			<g id="XMLID_548_">
				<path id="XMLID_549_" class="st88" d="M257.736,310.339c-0.193,0-0.387-0.066-0.545-0.2c-0.358-0.302-0.401-0.835-0.101-1.192
					l7.562-8.957c0.3-0.359,0.832-0.404,1.193-0.101c0.356,0.3,0.402,0.835,0.1,1.191l-7.561,8.957
					C258.217,310.237,257.979,310.339,257.736,310.339z"/>
			</g>
			<g id="XMLID_546_">
				<path id="XMLID_547_" class="st88" d="M261.519,315.557c-0.263,0-0.521-0.121-0.687-0.351l-3.78-5.218
					c-0.274-0.379-0.19-0.909,0.188-1.183c0.381-0.271,0.909-0.19,1.183,0.19l3.78,5.218c0.275,0.379,0.19,0.909-0.188,1.183
					C261.865,315.504,261.69,315.557,261.519,315.557z"/>
			</g>
		</g>
	</g>
	<path id="XMLID_541_" class="st0" d="M437.87,170.225c0-25.831-20.94-46.771-46.77-46.771c-25.835,0-46.773,20.94-46.773,46.771
		c0,25.836,20.938,46.775,46.773,46.775c0.711,0,1.419-0.021,2.121-0.053l18.891,15.982l2-21.986
		C428.293,202.909,437.87,187.692,437.87,170.225z"/>
	<path id="XMLID_540_" class="st1" d="M429.698,165.383c0-25.832-20.94-46.771-46.77-46.771c-25.835,0-46.773,20.94-46.773,46.771
		c0,25.836,20.938,46.775,46.773,46.775c0.711,0,1.419-0.022,2.121-0.053l18.891,15.98l2-21.985
		C420.12,198.066,429.698,182.849,429.698,165.383z"/>
	<g id="XMLID_504_">
		<path id="XMLID_537_" class="st2" d="M391.302,190.001c0,0.287-0.232,0.519-0.519,0.519H363.82c-0.286,0-0.519-0.232-0.519-0.519
			v-26.962c0-0.287,0.232-0.519,0.519-0.519h26.963c0.286,0,0.519,0.232,0.519,0.519V190.001z M364.302,188.52h26v-25h-26V188.52z"
			/>
		<path id="XMLID_536_" class="st2" d="M391.202,163.44c-0.129,0-0.257-0.047-0.357-0.143c-0.208-0.197-0.217-0.299-0.019-0.507
			l9.022-9.27H374.32l-9.504,9.813c-0.197,0.209-0.525,0.104-0.733-0.092c-0.208-0.197-0.217-0.582-0.02-0.79l9.658-9.985
			c0.098-0.103,0.234,0.055,0.377,0.055h26.96c0.207,0,0.394-0.122,0.477,0.069c0.081,0.191,0.042,0.289-0.101,0.439l-9.854,10.312
			C391.476,163.448,391.339,163.44,391.202,163.44z"/>
		<path id="XMLID_535_" class="st2" d="M391.308,190.138c-0.126,0-0.251-0.045-0.351-0.136c-0.211-0.194-0.225-0.522-0.031-0.733
			l9.916-10.786l-0.303-25.626c-0.004-0.286,0.226-0.521,0.512-0.524c0.242-0.025,0.522,0.225,0.525,0.513l0.306,25.831
			c0.002,0.132-0.047,0.26-0.136,0.357l-10.056,10.937C391.588,190.082,391.448,190.138,391.308,190.138z"/>
		<g id="XMLID_522_">
			<path id="XMLID_534_" class="st2" d="M374.279,154.52c-0.283,0-0.514-0.321-0.518-0.604l-0.015-1.084
				c-0.004-0.286,0.225-0.546,0.511-0.55c0.299-0.038,0.522,0.213,0.526,0.5l0.015,1.125c0.004,0.286-0.225,0.614-0.511,0.614
				C374.284,154.52,374.281,154.52,374.279,154.52z"/>
			<path id="XMLID_524_" class="st2" d="M366.661,187.733c-0.126,0-0.251-0.045-0.351-0.137c-0.211-0.193-0.225-0.522-0.031-0.733
				l1.372-1.494c0.195-0.21,0.523-0.224,0.733-0.031c0.211,0.194,0.225,0.522,0.031,0.733l-1.372,1.494
				C366.941,187.676,366.801,187.733,366.661,187.733z M369.405,184.745c-0.126,0-0.251-0.045-0.351-0.137
				c-0.211-0.194-0.225-0.522-0.031-0.733l1.372-1.494c0.194-0.211,0.521-0.224,0.733-0.031c0.211,0.193,0.225,0.522,0.031,0.733
				l-1.372,1.494C369.684,184.688,369.545,184.745,369.405,184.745z M372.149,181.757c-0.126,0-0.252-0.045-0.351-0.137
				c-0.211-0.193-0.225-0.522-0.031-0.733l1.372-1.494c0.195-0.211,0.522-0.224,0.733-0.031c0.211,0.194,0.225,0.522,0.031,0.733
				l-1.372,1.494C372.428,181.7,372.288,181.757,372.149,181.757z M374.63,178.52c-0.283,0-0.515-0.153-0.519-0.437l-0.03-1.991
				c-0.004-0.287,0.225-0.504,0.511-0.508c0.248-0.015,0.522,0.235,0.526,0.521l0.029,1.958c0.004,0.287-0.225,0.457-0.511,0.457
				C374.635,178.52,374.632,178.52,374.63,178.52z M374.571,175.52c-0.283,0-0.514-0.682-0.518-0.965l-0.03-2.255
				c-0.004-0.287,0.225-0.635,0.511-0.639c0.249-0.016,0.522,0.168,0.526,0.454l0.03,2.453c0.004,0.287-0.225,0.952-0.511,0.952
				C374.576,175.52,374.574,175.52,374.571,175.52z M374.513,171.52c-0.283,0-0.514-0.709-0.519-0.992l-0.029-2.27
				c-0.004-0.286,0.225-0.642,0.511-0.646c0.251-0.017,0.522,0.165,0.526,0.451l0.029,2.479c0.004,0.287-0.225,0.978-0.511,0.978
				C374.518,171.52,374.515,171.52,374.513,171.52z M374.454,166.52c-0.283,0-0.515-0.237-0.519-0.521l-0.029-2.033
				c-0.004-0.286,0.225-0.524,0.511-0.528c0.252-0.017,0.522,0.223,0.526,0.509l0.029,2.037c0.004,0.286-0.224,0.536-0.511,0.536
				C374.459,166.52,374.457,166.52,374.454,166.52z M374.396,162.52c-0.283,0-0.514-0.265-0.518-0.549l-0.029-2.047
				c-0.004-0.287,0.225-0.531,0.511-0.535c0.253-0.017,0.522,0.22,0.526,0.506l0.029,2.063c0.004,0.287-0.225,0.562-0.511,0.562
				C374.401,162.52,374.399,162.52,374.396,162.52z M374.337,157.52c-0.283,0-0.515,0.207-0.519-0.077l-0.03-1.811
				c-0.004-0.286,0.225-0.413,0.511-0.417c0.255-0.018,0.522,0.279,0.526,0.565l0.03,1.621c0.004,0.287-0.225,0.119-0.511,0.119
				C374.342,157.52,374.339,157.52,374.337,157.52z"/>
			<path id="XMLID_523_" class="st2" d="M364.588,189.99c-0.126,0-0.251-0.045-0.351-0.136c-0.211-0.193-0.225-0.522-0.031-0.733
				l0.701-0.764c0.194-0.211,0.521-0.224,0.733-0.031c0.211,0.193,0.225,0.522,0.031,0.733l-0.701,0.764
				C364.867,189.934,364.727,189.99,364.588,189.99z"/>
		</g>
		<g id="XMLID_513_">
			<path id="XMLID_521_" class="st2" d="M375.673,178.52c-0.001,0-0.001,0-0.001,0l-1.037,0.263
				c-0.287-0.001-0.518,0.154-0.517-0.133c0.001-0.286,0.233-0.13,0.519-0.13c0,0,0.001,0,0.001,0l1.037-0.251
				c0.287,0.001,0.518-0.16,0.517,0.127C376.19,178.682,375.959,178.52,375.673,178.52z"/>
			<path id="XMLID_515_" class="st2" d="M397.672,178.52h-0.002l-2.2,0.29c-0.286-0.001-0.518,0.134-0.517-0.152
				c0.001-0.286,0.198-0.138,0.52-0.138h2.2c0.286,0,0.518-0.286,0.517,0.001C398.189,178.806,397.957,178.52,397.672,178.52z
				 M393.272,178.52c0,0-0.001,0-0.001,0l-2.2,0.284c-0.286-0.001-0.519-0.357-0.517-0.643c0.001-0.286,0.233-0.641,0.518-0.641
				h0.001l2.2,0.275c0.286,0.001,0.518,0.077,0.517,0.364C393.789,178.445,393.557,178.52,393.272,178.52z M388.872,178.52
				c0,0-0.001,0-0.001,0l-2.199,0.278c-0.287-0.001-0.519-0.354-0.517-0.641c0.001-0.285,0.233-0.637,0.519-0.637
				c0,0,0.001,0,0.001,0l2.2,0.269c0.286,0.001,0.518,0.081,0.517,0.367C389.389,178.442,389.158,178.52,388.872,178.52z
				 M384.472,178.52c0,0-0.001,0-0.001,0l-2.199,0.273c-0.286-0.001-0.518-0.351-0.517-0.638c0.001-0.286,0.233-0.635,0.519-0.635
				c0,0,0.001,0,0.001,0l2.2,0.263c0.286,0.001,0.518,0.084,0.517,0.37C384.99,178.439,384.757,178.52,384.472,178.52z
				 M380.072,178.52c0,0-0.001,0-0.002,0l-2.199,0.266c-0.286-0.001-0.518-0.348-0.517-0.634c0.001-0.286,0.233-0.632,0.519-0.632
				c0,0,0.001,0,0.002,0l2.199,0.256c0.286,0.001,0.518,0.087,0.517,0.373C380.59,178.436,380.358,178.52,380.072,178.52z"/>
			<path id="XMLID_514_" class="st2" d="M400.909,178.52h-0.001l-1.037,0.299c-0.287-0.001-0.518,0.136-0.517-0.151
				c0.001-0.285,0.233-0.147,0.518-0.147c0.001,0,0.001,0,0.001,0l1.038-0.215c0.287,0.001,0.518-0.178,0.517,0.109
				C401.427,178.7,401.195,178.52,400.909,178.52z"/>
		</g>
		<path id="XMLID_510_" class="st2" d="M356.289,154.407c0.24-1.883,1.974-2.099,3.618-2.099c2.876,0,3.492,0.935,3.492,2.077v3.036
			c0,0.536,0.091,0.924,0.228,1.232h-2.008c-0.069-0.217-0.126-0.433-0.138-0.65c-0.685,0.685-1.962,0.879-2.864,0.879
			c-1.599,0-2.717-0.559-2.717-1.986c0-1.484,1.313-1.803,2.533-1.882l2.135-0.149c0.616-0.045,0.822-0.148,0.822-0.639
			c0-0.491-0.41-0.731-1.574-0.731c-0.856,0-1.302,0.069-1.586,0.913H356.289z M361.46,155.674
			c-0.377,0.183-0.788,0.228-1.187,0.263l-1.164,0.102c-0.707,0.057-1.062,0.251-1.062,0.799c0,0.548,0.514,0.855,1.267,0.855
			c1.016,0,2.146-0.49,2.146-1.517V155.674z"/>
		<path id="XMLID_507_" class="st2" d="M371.922,138.756h2.009v2.921h0.022c0.388-0.547,1.222-0.912,2.351-0.912
			c1.929,0,3.412,1.301,3.412,3.286c0,2.146-1.563,3.219-3.548,3.219c-0.845,0-1.518-0.172-2.282-0.993h-0.023v0.765h-1.94V138.756z
			 M375.745,145.786c1.016,0,1.895-0.605,1.895-1.769c0-1.163-0.879-1.768-1.895-1.768c-1.004,0-1.883,0.605-1.883,1.768
			C373.861,145.181,374.741,145.786,375.745,145.786z"/>
		<path id="XMLID_505_" class="st2" d="M407.188,145.417c-0.239-0.81-0.856-1.073-1.667-1.073c-1.244,0-1.962,0.673-1.962,1.872
			c0,1.198,0.718,1.872,1.962,1.872c0.891,0,1.564-0.48,1.667-1.244h2.076c-0.364,2.168-1.917,2.659-3.914,2.659
			c-2.304,0-3.868-0.982-3.868-3.286c0-2.306,1.621-3.287,4.04-3.287c1.552,0,3.368,0.468,3.743,2.487H407.188z"/>
	</g>
</g>
</svg>