<!-- Generator: Adobe Illustrator 19.0.0, SVG Export Plug-In  -->
<svg version="1.1"
	 xmlns="http://www.w3.org/2000/svg" xmlns:xlink="http://www.w3.org/1999/xlink" xmlns:a="http://ns.adobe.com/AdobeSVGViewerExtensions/3.0/"
	 x="0px" y="0px" width="56.55px" height="54.252px" viewBox="0 0 56.55 54.252" style="enable-background:new 0 0 56.55 54.252;"
	 xml:space="preserve">
<style type="text/css">
	.st0{fill:#FBB03B;stroke:#302D2D;stroke-width:1.8;stroke-linecap:round;stroke-linejoin:round;stroke-miterlimit:10;}
	.st1{fill:none;stroke:#302D2D;stroke-width:1.8;stroke-linecap:round;stroke-linejoin:round;stroke-miterlimit:10;}
	.st2{fill:#EA9A32;stroke:#302D2D;stroke-width:1.8;stroke-linecap:round;stroke-linejoin:round;stroke-miterlimit:10;}
	.st3{fill:#F2F2F2;stroke:#302D2D;stroke-width:1.8;stroke-linecap:round;stroke-linejoin:round;stroke-miterlimit:10;}
</style>
<defs>
</defs>
<rect x="0.9" y="23.602" class="st0" width="54.75" height="29.75"/>
<polyline class="st1" points="0.9,23.602 18.406,35.251 38.429,35.251 55.65,23.602 "/>
<polygon class="st2" points="55.65,23.602 28.275,5.385 0.9,23.602 "/>
<line class="st1" x1="0.9" y1="53.352" x2="18.416" y2="35.247"/>
<line class="st1" x1="55.65" y1="53.352" x2="38.23" y2="35.346"/>
<polygon class="st3" points="50.076,0.9 6.755,0.9 6.755,27.498 18.406,35.251 38.429,35.251 50.076,27.498 "/>
<path class="st1" d="M18.416,35.247"/>
<line class="st3" x1="11.242" y1="18.545" x2="45.242" y2="18.545"/>
<line class="st3" x1="11.242" y1="22.703" x2="45.242" y2="22.703"/>
<line class="st3" x1="38.23" y1="7.86" x2="45.242" y2="7.86"/>
<line class="st3" x1="38.23" y1="12.019" x2="45.242" y2="12.019"/>
<line class="st3" x1="11.242" y1="26.862" x2="45.242" y2="26.862"/>
<rect x="11.242" y="5.385" class="st3" width="23.334" height="9.108"/>
</svg>