<!-- Generator: Adobe Illustrator 19.0.0, SVG Export Plug-In  -->
<svg version="1.1"
	 xmlns="http://www.w3.org/2000/svg" xmlns:xlink="http://www.w3.org/1999/xlink" xmlns:a="http://ns.adobe.com/AdobeSVGViewerExtensions/3.0/"
	 x="0px" y="0px" width="72.977px" height="68.108px" viewBox="0 0 72.977 68.108"
	 style="enable-background:new 0 0 72.977 68.108;" xml:space="preserve">
<style type="text/css">
	.st0{fill:#00D9CE;}
	.st1{fill:#697271;}
	.st2{fill:#F15A24;stroke:#302D2D;stroke-width:2;stroke-linecap:round;stroke-linejoin:round;stroke-miterlimit:10;}
	.st3{fill:#FBB03B;}
	.st4{fill:#F5F5F5;}
	.st5{fill:#E6E6E6;}
	.st6{fill:none;stroke:#302D2D;stroke-width:2;stroke-linecap:round;stroke-linejoin:round;stroke-miterlimit:10;}
</style>
<defs>
</defs>
<g id="XMLID_1_">
	<g>
		<polygon class="st0" points="66.622,4.153 66.622,57.814 32.146,41.938 32.146,20.02 		"/>
		<path class="st1" d="M32.843,51.165h-5.277l-2.368-9.228h5.079C28.671,47.846,32.843,51.165,32.843,51.165z"/>
		<polygon class="st2" points="6.344,20.02 32.146,20.02 32.146,41.938 30.276,41.938 25.197,41.938 10.947,41.938 6.344,41.938 
			6.344,40.112 6.344,21.856 		"/>
		<polygon class="st3" points="30.796,63.446 31.648,67.108 30.707,63.446 		"/>
		<polygon class="st4" points="30.707,63.446 31.648,67.108 17.397,67.108 16.456,63.446 		"/>
		<polygon class="st5" points="27.565,51.165 30.707,63.446 16.456,63.446 14.178,54.528 10.947,41.938 25.197,41.938 		"/>
		<polygon class="st4" points="16.456,63.446 17.397,67.108 13.956,67.108 13.956,63.446 		"/>
		<rect x="1" y="21.856" class="st5" width="5.344" height="18.256"/>
	</g>
	<g>
		<polyline class="st6" points="6.344,21.856 6.344,20.02 32.146,20.02 		"/>
		<polyline class="st6" points="10.947,41.938 6.344,41.938 6.344,40.112 		"/>
		<polyline class="st6" points="32.146,41.938 30.276,41.938 25.197,41.938 		"/>
		<polyline class="st6" points="66.622,57.814 32.146,41.938 32.146,20.02 66.622,4.153 		"/>
		<rect x="1" y="21.856" class="st6" width="5.344" height="18.256"/>
		<polygon class="st6" points="66.622,57.814 66.622,60.957 71.977,60.957 71.977,1 66.622,1 66.622,4.153 		"/>
		<polyline class="st6" points="16.456,63.446 14.178,54.528 10.947,41.938 25.197,41.938 27.565,51.165 30.707,63.446 		"/>
		<path class="st6" d="M27.565,51.165h5.277c0,0-4.171-3.319-2.567-9.228"/>
		<polygon class="st6" points="31.648,67.108 17.397,67.108 13.956,67.108 13.956,63.446 16.456,63.446 30.707,63.446 
			30.796,63.446 		"/>
		<line class="st6" x1="10.393" y1="23.018" x2="28.34" y2="23.018"/>
	</g>
</g>
</svg>