<!-- Generator: Adobe Illustrator 19.0.0, SVG Export Plug-In  -->
<svg version="1.1"
	 xmlns="http://www.w3.org/2000/svg" xmlns:xlink="http://www.w3.org/1999/xlink" xmlns:a="http://ns.adobe.com/AdobeSVGViewerExtensions/3.0/"
	 x="0px" y="0px" width="85.362px" height="27.55px" viewBox="0 0 85.362 27.55" style="enable-background:new 0 0 85.362 27.55;"
	 xml:space="preserve">
<style type="text/css">
	.st0{fill:#FFFFFF;}
	.st1{fill:none;stroke:#302D2D;stroke-width:1.8;stroke-linecap:round;stroke-linejoin:round;stroke-miterlimit:10;}
</style>
<defs>
</defs>
<g>
	<g>
		<path class="st0" d="M82.463,0.9c1.1,0,2,0.9,2,2v21.5c0,1.1-0.9,2-2,2h-28.5c-1.1,0-2.479-0.762-3.062-1.694l-5.875-9.361
			c-0.584-0.933-0.584-2.456,0-3.389L50.9,2.594C51.484,1.662,52.863,0.9,53.962,0.9H82.463z"/>
		<path class="st1" d="M82.463,0.9c1.1,0,2,0.9,2,2v21.5c0,1.1-0.9,2-2,2h-28.5c-1.1,0-2.479-0.762-3.062-1.694l-5.875-9.361
			c-0.584-0.933-0.584-2.456,0-3.389L50.9,2.594C51.484,1.662,52.863,0.9,53.962,0.9H82.463z"/>
	</g>
	<circle class="st1" cx="53.712" cy="13.65" r="3.25"/>
	<line class="st1" x1="53.712" y1="13.65" x2="18.712" y2="13.65"/>
	<path class="st1" d="M18.712,13.65c-1.795,0-3.25,1.455-3.25,3.25s1.455,3.25,3.25,3.25h12.625c1.795,0,3.25,1.455,3.25,3.25
		c0,1.795-1.455,3.25-3.25,3.25H0.9"/>
</g>
</svg>