<!-- Generator: Adobe Illustrator 19.0.0, SVG Export Plug-In  -->
<svg version="1.1"
	 xmlns="http://www.w3.org/2000/svg" xmlns:xlink="http://www.w3.org/1999/xlink" xmlns:a="http://ns.adobe.com/AdobeSVGViewerExtensions/3.0/"
	 x="0px" y="0px" width="73.958px" height="51.14px" viewBox="0 0 73.958 51.14" style="enable-background:new 0 0 73.958 51.14;"
	 xml:space="preserve">
<style type="text/css">
	.st0{fill:#F5F5F5;}
	.st1{fill:#FBB03B;}
	.st2{fill:#302D2D;}
	.st3{fill:#00D9CE;}
	.st4{fill:none;stroke:#302D2D;stroke-width:1.8;stroke-linecap:round;stroke-linejoin:round;stroke-miterlimit:10;}
	.st5{fill:none;stroke:#302D2D;stroke-width:2;stroke-linecap:round;stroke-linejoin:round;stroke-miterlimit:10;}
</style>
<defs>
</defs>
<g id="XMLID_1_">
	<g>
		<path class="st0" d="M73.058,8.589V50.24H0.9V8.589H73.058z M21.507,33.182V14.504H7.11v18.678H21.507z"/>
		<path class="st1" d="M73.058,0.9v7.689H0.9V0.9H73.058z M68.445,4.899c0-0.816-0.663-1.467-1.467-1.467
			c-0.816,0-1.479,0.65-1.479,1.467s0.662,1.478,1.479,1.478C67.782,6.377,68.445,5.715,68.445,4.899z M64.423,4.899
			c0-0.816-0.65-1.467-1.467-1.467c-0.816,0-1.467,0.65-1.467,1.467s0.65,1.478,1.467,1.478C63.773,6.377,64.423,5.715,64.423,4.899
			z M60.259,4.899c0-0.816-0.662-1.467-1.467-1.467c-0.816,0-1.479,0.65-1.479,1.467s0.663,1.478,1.479,1.478
			C59.597,6.377,60.259,5.715,60.259,4.899z"/>
		<path class="st2" d="M66.978,3.432c0.804,0,1.467,0.65,1.467,1.467s-0.663,1.478-1.467,1.478c-0.816,0-1.479-0.662-1.479-1.478
			S66.162,3.432,66.978,3.432z"/>
		<path class="st2" d="M62.956,3.432c0.816,0,1.467,0.65,1.467,1.467s-0.65,1.478-1.467,1.478c-0.816,0-1.467-0.662-1.467-1.478
			S62.14,3.432,62.956,3.432z"/>
		<path class="st2" d="M58.792,3.432c0.805,0,1.467,0.65,1.467,1.467s-0.662,1.478-1.467,1.478c-0.816,0-1.479-0.662-1.479-1.478
			S57.976,3.432,58.792,3.432z"/>
		<rect x="7.11" y="14.504" class="st3" width="14.396" height="18.678"/>
	</g>
	<g>
		<polygon class="st4" points="73.058,8.589 73.058,50.24 0.9,50.24 0.9,8.589 0.9,0.9 73.058,0.9 		"/>
		<line class="st4" x1="0.9" y1="8.589" x2="73.058" y2="8.589"/>
		<rect x="7.11" y="14.504" class="st5" width="14.396" height="18.678"/>
		<line class="st4" x1="28.202" y1="14.504" x2="68.031" y2="14.504"/>
		<line class="st4" x1="28.202" y1="18.833" x2="68.031" y2="18.833"/>
		<line class="st4" x1="28.202" y1="23.565" x2="68.031" y2="23.565"/>
		<line class="st4" x1="28.202" y1="28.296" x2="68.031" y2="28.296"/>
		<line class="st4" x1="28.202" y1="33.028" x2="68.031" y2="33.028"/>
		<line class="st4" x1="7.11" y1="37.76" x2="68.031" y2="37.76"/>
		<line class="st4" x1="7.11" y1="42.492" x2="68.031" y2="42.492"/>
	</g>
</g>
</svg>