<!-- Generator: Adobe Illustrator 19.0.0, SVG Export Plug-In  -->
<svg version="1.1"
	 xmlns="http://www.w3.org/2000/svg" xmlns:xlink="http://www.w3.org/1999/xlink" xmlns:a="http://ns.adobe.com/AdobeSVGViewerExtensions/3.0/"
	 x="0px" y="0px" width="97.333px" height="139.594px" viewBox="0 0 97.333 139.594"
	 style="enable-background:new 0 0 97.333 139.594;" xml:space="preserve">
<style type="text/css">
	.st0{fill:#FFFFFF;}
</style>
<defs>
</defs>
<g>
	<path class="st0" d="M89.1,59.059H74.255c-0.855-5.781-5.822-10.221-11.841-10.221H59.17v-2.956
		c6.213-0.692,11.222-5.621,11.88-11.972l0.008-0.081h1.666c3.367,0,6.094-7.573,6.094-16.914C78.819,7.575,76.092,0,72.725,0
		H24.609c-3.366,0-6.093,7.575-6.093,16.916c0,9.34,2.727,16.914,6.093,16.914h1.665l0.008,0.081
		c0.658,6.351,5.668,11.28,11.88,11.972v2.956h-3.243c-6.018,0-10.986,4.441-11.841,10.221h-0.023v-2.577
		c0-1.803-1.461-3.264-3.264-3.264H9.121c-1.803,0-3.264,1.461-3.264,3.264v2.929C2.469,60.431,0,63.572,0,67.293v55.023
		c0,4.547,3.686,8.233,8.233,8.233H23.9c6.703,5.639,15.343,9.045,24.767,9.045c9.424,0,18.064-3.406,24.767-9.045H89.1
		c4.547,0,8.233-3.686,8.233-8.233V67.293C97.333,62.745,93.647,59.059,89.1,59.059z M34.798,27.122
		c-2.095,0-3.794-1.699-3.794-3.794V10.501c0-2.095,1.699-3.794,3.794-3.794h27.736c2.095,0,3.794,1.699,3.794,3.794v12.827
		c0,2.095-1.699,3.794-3.794,3.794H34.798z M18.866,101.061c0-16.459,13.342-29.799,29.8-29.799
		c16.459,0,29.801,13.341,29.801,29.799s-13.342,29.801-29.801,29.801C32.208,130.862,18.866,117.519,18.866,101.061z"/>
	<circle class="st0" cx="48.666" cy="101.061" r="23.052"/>
</g>
</svg>